<?xml version="1.0" encoding="UTF-8"?>
<svg id="_图层_1" data-name="图层 1" xmlns="http://www.w3.org/2000/svg" viewBox="0 0 3840 2160">
  <defs>
    <style>
      .cls-1 {
        opacity: 0;
      }
    </style>
  </defs>
  <g>
    <path d="M360.16,1486.37l12.28-128.61,23.97-436.08,6.75-175.77v-95.55c63.27.81,119.19,1.22,167.78,1.22,34.69,0,83.47-.41,146.34-1.22l262.36,475.56,36.17,69.86c4.52-68.62,9.14-164.84,13.88-288.64,4.72-123.78,7.09-209.38,7.09-256.78,50.16.81,90.31,1.22,120.5,1.22,13.86,0,53.81-.41,119.88-1.22l-14.72,182.52-27.59,507.11-3.69,146.38c-53.27-.81-103.05-1.22-149.34-1.22-38.52,0-91.78.41-159.78,1.22-21.17-40.03-36.84-69.05-47.02-87.03l-102.59-174.66c-33.8-57.19-64.94-111.94-93.44-164.23-18.73-33.09-38.08-69.45-58.02-109.09l-12.52,290.48-5.97,244.53c-50.72-.81-89.38-1.22-115.95-1.22-22.5,0-64.62.41-126.38,1.22Z"/>
    <path d="M1745.37,845.37c50.59,0,99.25,7.77,145.97,23.27,46.72,15.52,86.2,37.86,118.44,67.05s56,63.28,71.31,102.27c15.3,38.98,22.95,80.92,22.95,125.81s-6.84,85.22-20.52,124.61c-13.67,39.41-36.83,76.34-69.47,110.83-32.64,34.5-74.16,60.31-124.55,77.45-50.41,17.14-103.75,25.72-160.06,25.72-51.83,0-101.61-7.56-149.34-22.66-47.75-15.09-87.62-37.14-119.66-66.12-32.03-28.97-56.11-63.67-72.23-104.09-16.12-40.41-24.17-82.86-24.17-127.36s7.84-86.94,23.56-127.34c15.7-40.41,40.59-76.75,74.67-109,34.06-32.25,76.2-57.05,126.39-74.39s102.42-26.03,156.7-26.03ZM1741.04,1025.37c-26,0-49.14,6.73-69.45,20.2s-35.66,33.17-46.02,59.08-15.53,54.17-15.53,84.77c0,44.89,11.17,79.27,33.52,103.14s50.38,35.81,84.09,35.81c25.58,0,48.53-6.83,68.84-20.5s35.64-33.88,46-60.61c10.36-26.72,15.55-55.39,15.55-86,0-25.3-4.06-48.14-12.19-68.55s-21.44-36.72-39.92-48.97-40.11-18.38-64.89-18.38Z"/>
  </g>
  <g>
    <path d="M2449.15,624.2c16.11,0,25.46.52,28.58,2.08,10.39,4.68,10.91,15.07,10.91,18.71,0,4.16-1.04,7.8-3.64,10.91-3.12,4.16-6.76,6.76-11.43,7.79-4.68,1.04-14.55,1.56-30.14,2.08-33.78.52-66,2.08-96.66,4.68-14.03,1.56-22.87,2.08-25.47,2.6-3.12.52-5.72,2.08-8.31,4.68-3.12,3.12-5.2,4.68-6.76,4.68-2.6,0-4.68,6.76-6.24,19.75-1.56,12.99-2.6,28.06-2.6,44.17,0,14.03,0,20.79.52,20.79l1.56-.52c2.6-.52,8.32-2.08,11.95-2.6,23.39-5.72,43.66-8.32,61.32-8.83h28.58c29.62,0,48.85,2.6,56.65,7.79,5.72,3.64,8.31,9.88,8.31,18.19,0,7.8-4.16,14.03-12.47,17.67-2.08,1.04-4.68,1.56-7.28,1.56s-5.2-.52-7.8-1.04c-4.68-1.04-17.15-2.08-37.42-2.6h-12.47c-25.47,0-49.89,2.6-72.24,8.32l-17.67,4.68,1.04,10.39c6.24,68.08,14.55,117.45,24.95,148.11,1.56,4.68,2.08,8.32,2.08,11.95,0,1.56,0,2.6-.52,4.16-4.16,15.07-16.11,15.59-20.27,15.59-4.68,0-9.35-2.08-13.51-6.24-9.87-9.36-18.19-41.58-25.46-96.66-7.8-54.57-11.43-100.3-11.43-137.2,0-11.95.52-22.87,1.04-33.78,1.56-18.71,2.6-31.18,3.64-37.94,1.04-3.64,1.56-6.24,1.56-7.79,0-.52.52-2.08-3.12-4.68-2.08-1.56-3.64-4.16-5.2-8.83-.52-2.6-1.04-5.2-1.04-7.79,0-7.8,3.64-17.67,18.71-20.27,26.5-5.72,67.04-10.39,120.57-12.99,23.91-1.04,43.13-1.56,57.17-1.56Z"/>
    <path d="M2660.15,725.02c7.28,0,14.55,2.08,22.35,5.72,21.31,11.95,28.58,30.14,29.1,75.88,0,9.87-1.04,16.11-3.12,18.71-2.08,2.6-3.12,6.76-3.12,12.47,0,4.68.52,9.87,2.08,16.11,4.68,21.31,18.19,49.37,28.58,59.77,6.24,6.24,5.72,5.2,6.24,5.2s1.56-.52,3.12-1.56c2.6-2.6,5.72-6.76,8.31-12.47,5.2-9.87,11.43-15.07,18.71-16.63,1.56-.52,2.6-.52,4.16-.52,8.32,0,17.15,6.24,18.71,18.71v1.56c0,5.72-3.12,14.03-8.83,23.91-6.24,9.87-12.99,17.15-19.75,21.83-7.8,4.68-16.11,7.28-23.91,7.28-3.64,0-6.76-.52-10.39-1.56-18.19-5.2-33.26-18.71-44.69-41.06-3.12-5.72-5.2-8.32-5.72-8.32s-2.08,4.16-5.2,12.47c-9.35,26.5-20.27,46.77-32.74,60.29-10.91,11.95-25.46,13.51-32.22,13.51-4.68,0-9.35-1.04-12.99-2.6-20.27-8.32-38.98-42.62-44.69-77.96-1.04-7.8-1.56-15.59-1.56-23.91,0-14.03,1.56-29.1,4.68-45.21,4.68-23.39,17.67-47.81,37.94-74.32,20.27-26.5,38.46-41.58,54.57-45.73,3.64-1.04,6.76-1.56,10.39-1.56ZM2660.67,767.64c-2.08,0-4.68,1.04-8.32,3.64-12.99,8.83-33.78,37.42-46.25,62.36-10.39,20.79-12.47,45.73-12.47,59.76,0,6.76.52,12.99,1.56,19.23,3.12,16.63,8.32,29.1,15.59,37.94l3.12,3.12c.52,0,1.04-.52,1.56-1.56l.52-.52.52-.52c3.12-4.16,7.8-12.99,14.03-27.02,5.72-14.03,10.91-27.02,15.07-40.02,11.95-38.46,19.23-60.8,20.79-66.52,1.56-5.72,2.08-14.03,2.08-23.91,0-11.95-.52-19.75-2.08-22.35-1.56-2.6-3.12-3.64-5.72-3.64Z"/>
    <path d="M3036.41,610.69c4.16,0,8.32,1.56,12.47,4.16,2.6,2.08,5.2,4.68,6.76,8.32.52,1.04,1.04,3.64,1.04,7.28,0,7.8-1.04,20.79-3.64,39.5-2.6,17.15-4.68,38.46-6.76,63.92-1.56,16.11-2.08,36.38-2.08,60.8,0,12.47.52,33.26,1.04,61.84.52,29.1,2.6,48.33,5.2,58.21,1.56,3.64,2.08,7.28,2.08,10.91,0,1.56,0,2.6-.52,4.16-.52,2.08-.52,4.16-.52,6.76,0,3.64.52,7.79,1.04,11.95.52,2.6.52,5.2.52,7.28,0,9.35-2.08,16.11-6.76,19.75-6.76,5.72-18.71,5.72-25.47,0-2.08-1.56-3.64-2.6-5.2-2.6-1.04,0-2.08.52-2.6,1.56-6.76,7.28-17.67,14.03-32.74,19.75-14.03,5.2-28.58,7.79-43.66,7.79-14.03,0-28.06-2.08-42.62-6.76-41.58-12.99-58.21-46.77-58.21-81.59,0-5.72.52-10.91,1.04-16.63,5.72-47.81,33.78-98.22,71.2-126.81,18.19-14.03,35.86-20.79,54.05-20.79h3.64c15.07,1.56,26.5,5.2,33.78,11.95.52,1.04,1.56,1.56,2.08,1.56,0,0,1.04.52,1.56-4.16v-.52c.52-2.6,1.04-12.99,2.6-31.7,2.6-33.26,6.24-65.48,10.91-96.14,1.56-8.83,5.72-15.07,12.47-18.19,2.6-1.04,4.68-1.56,7.28-1.56ZM2961.57,790.5c-6.76,0-14.03,2.6-21.83,8.32-16.11,10.91-30.14,26.5-42.1,46.77-11.95,20.27-18.19,40.54-19.75,60.29v5.72c0,14.55,3.64,25.47,10.91,32.74,10.91,11.95,21.31,15.07,47.81,15.07,10.39,0,17.15-.52,20.27-1.04,2.6-.52,6.76-1.56,11.95-4.16,6.24-2.6,14.55-8.83,24.43-18.71l14.55-13.51-1.04-12.99c-3.64-42.62-10.39-74.32-19.75-94.59-5.72-12.99-12.47-20.27-19.23-22.87-2.08-.52-4.16-1.04-6.24-1.04Z"/>
    <path d="M3128.39,622.64h2.08c14.03,1.56,18.19,12.99,18.19,20.79,0,2.6-.52,5.72-2.08,9.35-1.56,3.12-2.08,6.76-2.08,10.39,0,1.56,0,3.64.52,5.2v3.64c0,8.32-3.12,14.55-9.35,18.71-4.16,3.12-8.83,4.68-13.51,4.68-3.64,0-14.55,0-20.79-12.47-1.56-3.12-2.08-6.76-2.08-11.43,0-6.76,1.56-14.55,4.68-23.91,3.64-11.43,8.32-18.71,14.03-22.35,3.12-1.56,6.76-2.6,10.39-2.6ZM3132.03,729.7c4.68,0,8.83,1.56,12.47,5.2,4.16,4.16,6.24,9.35,6.24,15.59,0,3.64-.52,7.8-2.08,12.47-5.72,17.67-8.32,40.54-8.32,68.08,0,24.43,3.12,59.25,9.35,104.46l4.16,33.26-3.12,5.72c-6.76,12.47-16.11,10.91-18.19,10.91-5.2,0-9.88-2.08-14.03-6.24-2.6-2.6-4.68-6.76-5.72-11.95-1.56-4.68-3.64-21.31-7.28-48.85-4.16-33.78-6.24-63.92-6.24-89.91,0-32.22,3.12-58.21,9.87-78.47,6.24-17.15,12.47-20.27,22.87-20.27Z"/>
    <path d="M3227.14,726.06c3.64,0,12.99,1.04,17.67,9.87,1.56,2.6,2.6,6.24,2.6,9.88,0,4.68-1.04,10.39-3.64,16.11-2.6,7.28-4.16,16.63-4.16,27.54,0,8.32,1.04,17.67,2.6,28.58,2.6,14.55,4.16,22.87,5.2,24.95q.52.52,1.04.52c.52,0,1.56,0,5.72-6.24,11.95-16.63,28.06-29.62,48.85-39.5,9.87-4.68,20.27-7.28,31.18-7.28,8.32,0,29.1-.52,52.49,20.79,21.31,19.23,34.82,54.05,41.58,103.94,1.56,12.47,2.6,21.31,2.6,25.98,0,1.56,1.04,6.76-5.2,13.51-4.16,4.68-8.83,7.28-14.03,7.28-3.64,0-6.76-1.04-10.39-2.6-8.31-4.16-10.39-8.32-12.47-28.58-4.68-37.42-11.95-63.4-21.83-77.96-9.87-14.03-20.27-21.31-31.18-21.31-4.68,0-9.88,1.04-15.07,3.64-15.59,6.76-29.62,20.27-42.1,40.02-12.47,19.23-20.27,44.17-22.87,74.84-1.56,17.15-4.68,22.35-13.51,25.99-2.6,1.04-5.72,1.56-8.32,1.56-5.2,0-9.87-2.08-14.03-6.24-6.24-6.24-6.76-9.87-6.76-36.38,0-28.06-3.12-60.8-9.35-98.22-3.64-20.27-5.2-36.9-5.2-50.93,0-10.91,1.04-19.75,3.12-27.02,4.16-17.15,9.35-27.54,15.07-30.14,3.64-1.56,6.76-2.6,10.39-2.6Z"/>
    <path d="M3516.61,613.8c3.64,0,6.76,1.04,9.87,2.6,3.12,1.56,5.72,4.16,7.28,7.28,1.56,3.12,2.6,6.76,2.6,10.39v5.2c-.52,2.6-2.08,11.95-5.72,27.02-3.64,16.11-6.24,33.78-8.83,52.49-2.6,20.27-5.2,31.7-7.8,34.3-4.68,4.68-9.35,6.76-14.55,6.76-4.68,0-19.23-.52-20.79-18.71v-4.16c0-8.83,2.08-24.95,5.72-48.33,3.64-23.39,7.28-41.58,11.43-55.61,2.6-9.35,6.76-15.07,13.51-17.67,2.6-1.04,4.68-1.56,7.28-1.56Z"/>
    <path d="M2446.03,1118.12c6.76.52,11.95,2.08,15.07,5.2,4.68,4.16,9.36,13.51,15.07,27.54,5.72,14.55,14.55,40.54,26.5,78.47,51.45,162.67,77.44,258.29,77.44,285.83,0,14.03-8.83,23.39-21.31,23.39-9.35,0-16.63-4.68-21.31-13.51-1.56-3.64-2.6-7.79-2.6-12.47v-4.16c.52-1.56.52-3.64.52-6.24,0-6.24-1.04-14.03-3.12-22.87-7.28-31.7-16.11-65.48-27.02-101.34-1.56-5.72-1.56-5.2-12.47-5.2-5.2,0-21.83-1.04-49.37-3.12s-48.33-3.12-61.84-3.12h-23.91l-2.08,5.72c-7.8,27.02-14.55,53.53-20.79,80.03-6.24,27.02-12.99,35.86-29.1,35.86-12.99,0-21.31-8.83-21.31-22.87,0-7.8,4.68-21.83,8.83-25.99,1.56-2.08,4.68-12.47,9.35-30.66,5.72-20.27,11.95-43.13,19.75-68.08,42.09-137.72,78.47-211.52,109.66-221.39,3.64-.52,8.32-1.04,14.03-1.04ZM2438.75,1170.09c-.52-.52-.52-1.04-1.04-1.04-1.56,0-4.68,3.12-8.32,9.87-2.08,4.16-5.2,10.39-9.35,18.19-13.51,27.54-27.02,60.8-40.54,100.3l-8.83,25.99,22.87,1.56c7.8.52,25.47,1.56,52.49,3.12,26.5,2.08,38.98,3.12,42.62,3.12h2.08c0-2.6-13.51-45.73-41.06-129.41-5.72-18.71-9.35-29.1-10.91-31.7Z"/>
    <path d="M2927.79,1223.62c4.68,0,15.07,1.56,19.23,10.39,1.56,3.64,2.6,7.28,2.6,9.87,0,4.16,0,7.8-17.15,23.91-16.11,14.03-31.18,34.3-44.17,60.8-10.91,21.31-18.71,45.73-23.39,74.32-4.68,25.46-10.39,41.58-17.67,48.33-4.16,3.64-9.35,5.72-15.59,5.72-22.87,0-37.94-20.79-52.49-72.76-2.6-9.87-5.72-22.87-9.35-39.5-3.64-16.63-5.2-26.5-5.2-30.14v-4.16l-2.6,5.2c-4.16,9.87-12.99,40.54-26.5,93.03-6.76,26.5-11.95,43.65-15.07,51.97-3.64,8.32-7.8,13.51-12.99,16.11-4.16,2.08-7.8,3.12-11.43,3.12-14.03-.52-29.62-14.55-46.25-42.1-16.63-27.54-28.06-58.73-34.82-93.54-6.76-37.94-6.24-66-6.24-72.24,0-17.15,1.04-28.58,3.64-34.3,4.68-11.95,15.07-12.47,19.23-12.47,3.64,0,7.79,1.04,11.43,3.64,8.32,5.72,8.83,11.95,8.83,18.71,0,3.64-.52,7.79-1.04,12.47-.52,6.24-1.04,12.47-1.04,19.23,0,17.67,2.6,38.98,8.31,63.92,5.2,25.47,13.51,48.33,24.95,68.6l5.72,10.39,10.91-41.58c10.39-40.02,19.23-69.64,27.02-89.91s15.59-35.34,24.43-46.25c16.63-20.27,27.02-16.11,28.58-16.11,8.83,0,15.07,4.16,19.23,12.47,2.6,5.72,4.16,16.63,4.16,32.74.52,33.78,6.76,69.64,18.19,106.54.52.52.52,1.56,1.04,2.6.52,2.6,1.04,4.16,1.56,4.68l2.6-7.28v-1.04c.52-2.6,1.04-5.2,1.56-7.28,2.6-14.55,8.31-31.18,17.15-50.41s17.67-34.82,27.02-47.81c6.24-8.83,14.55-18.71,25.47-29.62s17.67-17.15,21.31-18.71c2.6-1.04,5.72-1.56,8.83-1.56Z"/>
    <path d="M3121.64,1235.05c7.28,0,14.55,2.08,22.35,5.72,21.31,11.95,28.58,30.14,29.1,75.88,0,9.88-1.04,16.11-3.12,18.71-2.08,2.6-3.12,6.76-3.12,12.47,0,4.68.52,9.87,2.08,16.11,4.68,21.31,18.19,49.37,28.58,59.77,6.24,6.24,5.72,5.2,6.24,5.2s1.56-.52,3.12-1.56c2.6-2.6,5.72-6.76,8.31-12.47,5.2-9.87,11.43-15.07,18.71-16.63,1.56-.52,2.6-.52,4.16-.52,8.32,0,17.15,6.24,18.71,18.71v1.56c0,5.72-3.12,14.03-8.83,23.91-6.24,9.87-12.99,17.15-19.75,21.83-7.8,4.68-16.11,7.28-23.91,7.28-3.64,0-6.76-.52-10.39-1.56-18.19-5.2-33.26-18.71-44.69-41.06-3.12-5.72-5.2-8.31-5.72-8.31s-2.08,4.16-5.2,12.47c-9.35,26.5-20.27,46.77-32.74,60.29-10.91,11.95-25.46,13.51-32.22,13.51-4.68,0-9.35-1.04-12.99-2.6-20.27-8.31-38.98-42.62-44.69-77.95-1.04-7.8-1.56-15.59-1.56-23.91,0-14.03,1.56-29.1,4.68-45.21,4.68-23.39,17.67-47.81,37.94-74.32s38.46-41.58,54.57-45.73c3.64-1.04,6.76-1.56,10.39-1.56ZM3122.16,1277.67c-2.08,0-4.68,1.04-8.32,3.64-12.99,8.83-33.78,37.42-46.25,62.36-10.39,20.79-12.47,45.73-12.47,59.77,0,6.76.52,12.99,1.56,19.23,3.12,16.63,8.32,29.1,15.59,37.94l3.12,3.12c.52,0,1.04-.52,1.56-1.56l.52-.52.52-.52c3.12-4.16,7.8-12.99,14.03-27.02,5.72-14.03,10.91-27.02,15.07-40.02,11.95-38.46,19.23-60.8,20.79-66.52,1.56-5.72,2.08-14.03,2.08-23.91,0-11.95-.52-19.75-2.08-22.35-1.56-2.6-3.12-3.64-5.72-3.64Z"/>
    <path d="M3317.05,1238.69c4.68,0,9.35,1.04,12.99,3.64,8.83,5.72,9.35,15.07,9.35,19.23,0,3.64-1.04,6.76-2.6,9.35-1.56,2.08-2.6,4.68-2.6,7.28,0,0-1.04-.52,5.72,20.79,8.83,29.62,20.79,58.73,34.82,88.35l11.43,23.39,6.24-25.99c21.31-88.87,42.62-136.16,63.92-141.88,2.08-.52,4.16-.52,6.24-.52,6.24,0,11.43,2.6,15.59,7.28,2.08,2.6,3.12,6.24,3.12,11.43v2.08c-.52,5.72-2.6,10.91-6.24,15.07-14.03,16.11-29.62,61.32-46.77,136.68-4.68,21.83-10.91,53.01-18.19,93.03-7.79,40.02-12.47,68.6-14.55,84.71-2.6,19.75-5.72,33.26-10.39,41.06-5.2,8.83-12.47,12.99-21.31,12.99-.52,0-3.64,0-9.35-.52-5.72-.52-10.39-6.24-14.03-16.11-1.56-4.16-2.08-10.39-2.08-18.19,0-12.99,3.64-20.79,11.43-23.91,3.12-1.04,5.2-4.16,5.72-9.87s4.16-25.47,10.39-59.77l8.83-51.45-3.64-4.68c-10.91-11.43-24.95-36.9-42.62-76.92-18.19-40.02-29.62-71.72-34.3-95.62-1.56-8.83-2.6-16.63-2.6-22.35,0-6.24,1.04-10.91,2.6-14.55,3.64-6.76,8.32-11.43,14.55-12.99,2.6-.52,5.72-1.04,8.32-1.04Z"/>
  </g>
  <g>
    <path d="M325.4,1570.7c1,0,1.99.25,2.87.87,1,.62,1.99,2.62,1.99,3.99,0,.5-1,4.11-2.99,10.84-2.87,8.85-5.23,16.45-7.1,22.93-.87,2.74-3.24,10.47-7.35,23.3-4.36,13.21-6.6,20.69-6.6,22.43,0,2.37-2.24,4.24-5.11,4.24-2.12,0-4.61-2.24-4.61-5.11,0-2.62,2.12-10.22,6.36-23.05,2.12-6.23,4.74-14.33,7.6-24.18,6.48-21.31,10.09-32.77,10.97-34.15.37-.62,1-1.12,1.87-1.62.75-.37,1.5-.5,2.12-.5Z"/>
    <path d="M346.09,1573.06c1,0,1.99.37,2.99,1.12.75.62,1.25,1.12,1.37,1.74.12.37.25,2.49.62,6.48.25,3.24.75,8.35,1.62,15.33.87,6.73,1.99,13.33,3.61,19.69,3.36,13.33,5.36,20.31,6.11,20.94h.12c.75,0,4.36-10.47,10.84-31.28,1.74-5.61,3.36-10.47,4.86-14.33,3.12-7.85,5.61-12.71,7.23-14.58,1.12-1.37,2.49-1.99,3.86-1.99.87,0,1.87.25,2.99.87,1.5.87,2.37,3.61,2.74,8.22.5,6.36,1.99,14.71,4.61,24.92,2.62,10.22,5.36,19.07,8.23,26.54,2.12,5.36,3.36,8.1,3.99,8.1.25,0,.5-.75.75-2.37.37-2.12,1.62-6.85,3.74-13.96,3.86-13.33,5.98-21.31,6.6-23.93,1.87-8.97,3.24-16.95,3.99-23.93.12-2.12.87-3.49,2.12-4.36,1.12-.75,2.12-1.12,3.12-1.12,1.25,0,2.37.5,3.49,1.62,1.62,1.62,1.37,2.99,1.37,3.49,0,1.12-.25,2.74-.62,4.98-.12.75-.37,2.37-.75,4.86-.5,2.62-.87,4.49-1,5.73-1.25,7.85-3.24,16.45-5.98,25.8-3.36,11.59-5.61,20.06-6.85,25.42-1.87,8.35-3.74,10.84-8.6,10.84-2.62,0-5.11-1.37-7.48-4.11-4.98-5.48-10.09-18.94-15.45-40.25-.75-2.87-1.62-6.48-2.62-11.09-.37-1.12-.62-2.87-.75-3.74l-.12-.5c-.12,0-3.49,10.34-7.98,24.43-5.61,18.32-10.47,28.29-14.33,29.91-1,.37-2.12.5-3.24.5-1.37,0-2.49-.37-3.36-1.25-2.37-2.12-5.36-9.72-8.97-22.93-3.12-11.59-5.23-22.18-6.36-31.9-1-8.6-1.5-14.46-1.5-17.32,0-.25,0-1.12.12-2.62,0-1.37.75-2.49,2.12-3.24.87-.5,1.87-.75,2.74-.75Z"/>
    <path d="M474.95,1608.71c1.37,0,3.36.25,5.98.62,2.49.37,4.24,1.37,5.23,2.74.37.75,1.37,1.62,2.74,2.49,3.61,2.37,6.73,5.48,9.35,9.1,3.49,5.11,5.23,10.22,5.23,15.08,0,1.75-.5,4.61-1.62,8.72s-5.36,7.85-12.84,11.22c-4.11,1.87-8.35,2.87-12.59,2.87-.75,0-2.62-.12-5.48-.37s-6.36-1.87-10.34-4.74c-4.36-2.99-7.23-7.35-8.6-13.21-.37-1.74-.62-3.99-.62-6.6,0-1-.12-5.61,1-9.1,3.24-9.85,8.85-15.95,16.82-18.07,1.87-.5,3.74-.75,5.73-.75ZM468.96,1620.29c-4.36,2.62-7.98,9.84-7.98,16.2,0,2.62.62,5.36,1.99,7.98,1.25,2.49,3.36,4.36,6.48,5.73,2.62,1.12,6.11,1.25,7.48,1.25s2.49-.12,3.61-.37c5.86-1.37,11.22-5.73,12.59-9.84.25-.87.37-1.87.37-2.74,0-.62-.12-1.37-.25-2.12-1.5-5.48-4.74-9.97-9.84-13.46-2.12-1.37-3.86-2.12-5.23-2.12-.5,0-1,.12-1.37.25-.62.25-1.37.37-2.12.37-.62,0-2.37,0-3.36-1q-.87-1-2.37-.12Z"/>
    <path d="M522.43,1594.5c1.37,0,2.49.5,3.61,1.62.75.75,1.12,1.75,1.12,2.99v.37c-.12,1.5-.37,2.74-.62,3.74-.25.87-.37,1.5-.37,1.99,0,.37,0,.62.12.75.12.37.12.62.12.62.12,0,.62-.5,1.5-1.62,1.87-2.37,4.24-4.49,7.1-6.36s5.23-2.74,6.85-2.74c2.99,0,4.98,1.99,4.98,4.86,0,2.12-1.25,3.74-3.74,4.86-7.1,3.37-12.34,10.59-15.45,21.56-1.5,5.36-1.25,8.6-1.25,9.47,0,2.99.25,7.35.75,13.21.37,3.86.5,6.6.5,8.22,0,1,.37,2.62-1.99,3.99-.87.5-1.74.75-2.74.75-.87,0-3.49-.12-4.49-2.49-.37-.75-.75-3.49-1.37-8.22-.62-4.74-1.12-12.59-1.25-23.55v-7.35c0-18.07.62-25.3,4.98-26.42.62-.12,1.12-.25,1.62-.25Z"/>
    <path d="M565.17,1569.7c1.12,0,2.24.5,3.12,1.5.87,1,1.37,2.12,1.37,3.49,0,1-.25,2.12-.87,3.37-2.49,5.73-3.74,13.08-3.74,22.18,0,7.23.87,17.32,2.62,30.41,1.37,10.84,2.37,18.94,2.74,24.3.12,1.5.12,2.74.12,3.86,0,2.87-.12,4.61-1.74,6.11-.87.62-1.87,1-2.99,1-.62,0-3.36.12-4.49-2.49-.37-1.12-.62-3.36-.75-6.6-.12-4.36-1-12.34-2.62-23.93-1.74-12.59-2.74-21.06-2.87-25.17s-.25-6.73-.25-7.85c0-5.36.5-10.34,1.37-14.71,1.37-7.1,3.99-13.83,5.86-14.83,1-.37,1.99-.62,3.12-.62Z"/>
    <path d="M628.35,1570.45c1,0,1.99.37,2.99,1,.62.5,1.25,1.12,1.62,1.99.12.25.25.87.25,1.75,0,1.87-.25,4.98-.87,9.47-.62,4.11-1.12,9.22-1.62,15.33-.37,3.86-.5,8.72-.5,14.58,0,2.99.12,7.98.25,14.83.12,6.98.62,11.59,1.25,13.96.37.87.5,1.74.5,2.62,0,.37,0,.62-.12,1-.12.5-.12,1-.12,1.62,0,.87.12,1.87.25,2.87.12.62.12,1.25.12,1.74,0,2.24-.5,3.86-1.62,4.74-1.62,1.37-4.49,1.37-6.11,0-.5-.37-.87-.62-1.25-.62-.25,0-.5.12-.62.37-1.62,1.75-4.24,3.36-7.85,4.74-3.36,1.25-6.85,1.87-10.47,1.87-3.36,0-6.73-.5-10.22-1.62-9.97-3.12-13.96-11.21-13.96-19.56,0-1.37.12-2.62.25-3.99,1.37-11.46,8.1-23.55,17.07-30.41,4.36-3.37,8.6-4.99,12.96-4.99h.87c3.61.37,6.36,1.25,8.1,2.87.12.25.37.37.5.37,0,0,.25.12.37-1v-.12c.12-.62.25-3.12.62-7.6.62-7.98,1.5-15.7,2.62-23.05.37-2.12,1.37-3.61,2.99-4.36.62-.25,1.12-.37,1.74-.37ZM610.41,1613.57c-1.62,0-3.36.62-5.23,1.99-3.86,2.62-7.23,6.36-10.09,11.22s-4.36,9.72-4.74,14.46v1.37c0,3.49.87,6.11,2.62,7.85,2.62,2.87,5.11,3.61,11.46,3.61,2.49,0,4.11-.12,4.86-.25.62-.12,1.62-.37,2.87-1,1.5-.62,3.49-2.12,5.86-4.49l3.49-3.24-.25-3.12c-.87-10.22-2.49-17.82-4.74-22.68-1.37-3.12-2.99-4.86-4.61-5.48-.5-.12-1-.25-1.5-.25Z"/>
    <path d="M667.86,1570.7c1,0,1.99.25,2.87.87,1,.62,1.99,2.62,1.99,3.99,0,.5-1,4.11-2.99,10.84-2.87,8.85-5.23,16.45-7.1,22.93-.87,2.74-3.24,10.47-7.35,23.3-4.36,13.21-6.6,20.69-6.6,22.43,0,2.37-2.24,4.24-5.11,4.24-2.12,0-4.61-2.24-4.61-5.11,0-2.62,2.12-10.22,6.36-23.05,2.12-6.23,4.74-14.33,7.6-24.18,6.48-21.31,10.09-32.77,10.97-34.15.37-.62,1-1.12,1.87-1.62.75-.37,1.5-.5,2.12-.5Z"/>
    <path d="M704.75,1572.07c2.49,0,9.1,0,15.58,1.87,13.83,3.86,23.3,13.46,26.67,26.92.87,3.37,1.37,7.1,1.37,11.22,0,3.61-.37,7.6-1.12,11.71-1.12,7.35-4.11,13.46-8.97,18.32-5.98,6.23-15.83,11.59-29.53,16.2-3.24,1.12-5.23,1.99-5.86,2.37-1.12.75-2.49,1.12-4.11,1.12-.62,0-1.25,0-1.87-.12-3.86-.87-5.11-2.12-7.23-8.6-2.37-7.1-4.11-18.57-5.48-34.39-.37-4.24-.5-10.09-.5-17.7,0-1.62,0-5.23.12-11.09,0-5.73.25-8.97.75-9.85,1.62-2.87,7.6-6.48,12.59-7.35,2.12-.37,4.74-.62,7.6-.62ZM704.75,1581.79c-3.36,0-6.23.5-8.47,1.5-1.37.62-2.37,3.61-2.74,9.22-.12,2.12-.25,4.49-.25,7.1,0,5.48.5,13.21,1.37,23.18.87,9.97,1.99,18.07,3.61,24.18.37,1,.87,1.5,1.62,1.5.87,0,1.62.25,2.24.62.37.12.75.25,1.12.25.75,0,1.62-.25,2.74-.62,5.61-1.74,10.22-3.61,14.08-5.61,8.6-4.36,14.08-9.84,16.32-16.45,1.37-3.86,1.99-8.6,1.99-14.33,0-7.85-2.87-15.95-7.23-20.81-4.36-4.86-10.84-7.85-19.32-9.1-2.62-.37-4.98-.62-7.1-.62Z"/>
    <path d="M767.31,1594.5c1.37,0,2.49.5,3.61,1.62.75.75,1.12,1.75,1.12,2.99v.37c-.12,1.5-.37,2.74-.62,3.74-.25.87-.37,1.5-.37,1.99,0,.37,0,.62.12.75.12.37.12.62.12.62.12,0,.62-.5,1.5-1.62,1.87-2.37,4.24-4.49,7.1-6.36s5.23-2.74,6.85-2.74c2.99,0,4.98,1.99,4.98,4.86,0,2.12-1.25,3.74-3.74,4.86-7.1,3.37-12.34,10.59-15.45,21.56-1.5,5.36-1.25,8.6-1.25,9.47,0,2.99.25,7.35.75,13.21.37,3.86.5,6.6.5,8.22,0,1,.37,2.62-1.99,3.99-.87.5-1.74.75-2.74.75-.87,0-3.49-.12-4.49-2.49-.37-.75-.75-3.49-1.37-8.22-.62-4.74-1.12-12.59-1.25-23.55v-7.35c0-18.07.62-25.3,4.98-26.42.62-.12,1.12-.25,1.62-.25Z"/>
    <path d="M831.24,1602.23c1,0,4.74-.12,9.1.75,6.11,1.12,10.34,3.99,12.46,8.35.62,1.25,1,2.87,1,4.74,0,.37.25,2.74-1.25,5.73-2.12,4.61-8.6,9.22-15.2,10.84-2.12.5-4.36.75-6.73.75-2.62,0-5.36-.25-8.23-.87-1.37-.37-2.37-.5-2.99-.5-.37,0-.5,0-.62.12s-.12.5-.12,1.12c0,1,.12,4.24,1,7.1,1.87,6.36,5.36,9.1,12.46,10.22.37.12.87.12,1.37.12,3.36,0,10.22-1.75,14.08-4.24,2.99-1.99,4.74-4.11,5.11-6.36.62-2.99,2.24-4.49,4.86-4.49,3.24,0,4.86,1.75,4.86,5.36v.75c-.37,4.11-2.62,7.98-6.85,11.34-4.36,3.37-9.72,5.73-16.08,6.85-1.87.37-3.86.5-5.73.5-3.49,0-7.23-.75-11.34-2.37-4.11-1.62-7.35-4.49-9.72-8.6-2.62-4.61-3.86-9.97-3.86-16.33,0-.37,0-2.49.12-6.11s1.62-7.98,4.49-13.33c3.12-5.61,7.6-9.35,13.58-11.09.87-.25,2.24-.37,4.24-.37ZM833.98,1612.32c-.87-.12-1.62-.12-2.24-.12-2.99,0-4.24.25-7.1,3.24-1.62,1.62-3.74,5.61-3.74,6.23v.12l2.62.75c1.74.5,3.99.75,6.85.75,4.11,0,7.6-1,10.34-3.12,1.5-1.12,3.36-3.49,3.36-4.11s-1.87-2.24-3.74-2.87c-1.37-.37-3.49-.75-6.36-.87Z"/>
    <path d="M903.64,1597.86c1.74,0,3.49.5,5.36,1.37,5.11,2.87,6.85,7.23,6.98,18.19,0,2.37-.25,3.86-.75,4.49-.5.62-.75,1.62-.75,2.99,0,1.12.12,2.37.5,3.86,1.12,5.11,4.36,11.84,6.85,14.33,1.5,1.5,1.37,1.25,1.5,1.25s.37-.12.75-.37c.62-.62,1.37-1.62,1.99-2.99,1.25-2.37,2.74-3.61,4.49-3.99.37-.12.62-.12,1-.12,1.99,0,4.11,1.5,4.49,4.49v.37c0,1.37-.75,3.36-2.12,5.73-1.5,2.37-3.12,4.11-4.74,5.23-1.87,1.12-3.86,1.74-5.73,1.74-.87,0-1.62-.12-2.49-.37-4.36-1.25-7.98-4.49-10.72-9.84-.75-1.37-1.25-1.99-1.37-1.99s-.5,1-1.25,2.99c-2.24,6.36-4.86,11.22-7.85,14.46-2.62,2.87-6.11,3.24-7.73,3.24-1.12,0-2.24-.25-3.12-.62-4.86-1.99-9.35-10.22-10.72-18.69-.25-1.87-.37-3.74-.37-5.73,0-3.36.37-6.98,1.12-10.84,1.12-5.61,4.24-11.46,9.1-17.82,4.86-6.36,9.22-9.97,13.08-10.97.87-.25,1.62-.37,2.49-.37ZM903.77,1608.08c-.5,0-1.12.25-1.99.87-3.12,2.12-8.1,8.97-11.09,14.95-2.49,4.98-2.99,10.97-2.99,14.33,0,1.62.12,3.12.37,4.61.75,3.99,1.99,6.98,3.74,9.1l.75.75c.12,0,.25-.12.37-.37l.12-.12.12-.12c.75-1,1.87-3.12,3.36-6.48,1.37-3.37,2.62-6.48,3.61-9.6,2.87-9.22,4.61-14.58,4.98-15.95.37-1.37.5-3.36.5-5.73,0-2.87-.12-4.74-.5-5.36-.37-.62-.75-.87-1.37-.87Z"/>
    <path d="M952.99,1595.5c1.37,0,2.62.75,3.74,2.24.62.87.87,1.87.87,2.87,0,.87-.12,1.74-.5,2.62-1.12,3.36-1.74,7.6-1.74,12.83v4.49l1.87-3.12c5.36-8.6,10.97-12.84,16.7-12.84.62,0,1.37,0,1.99.12,4.11.62,7.6,3.61,10.47,8.97l1.37,2.37,1.5-2.24c1-1.37,1.99-2.62,2.87-3.49,2.37-2.49,5.48-4.49,9.6-6.11,2.74-1,5.11-1.5,7.23-1.5.87,0,1.74.12,2.62.25,1.5.37,4.36,3.12,5.86,5.73,3.49,5.73,6.98,15.58,10.59,29.53,1.25,5.23,1.87,8.97,1.87,11.34,0,1-.12,1.75-.37,2.24-1.12,2.37-3.36,2.37-4.36,2.37-.75,0-1.5-.12-2.37-.5-1.5-.87-1.87-1.75-2.99-6.85-1-4.98-2.49-10.72-4.61-17.2-2.12-6.48-3.99-11.22-5.61-14.33l-1.25-2.62-1.5.37c-6.11,1.74-10.47,6.48-12.96,14.33-.62,2.12-1,3.49-1,4.36s.25,2.99.75,6.48c.62,2.99.87,5.48.87,7.6,0,1.87-.25,3.24-.75,4.24-1.37,2.49-3.86,2.74-4.98,2.74-.87,0-1.87-.25-2.74-.75-.87-.62-1.5-1.37-2.12-2.49-1.12-2.49-1.74-8.1-1.74-12.46v-2.99c0-2.12-.25-4.24-.87-6.36-2.12-7.48-5.73-13.33-7.73-13.33h-.25c-1.37.37-3.49,2.62-6.36,6.73-2.87,4.11-4.86,7.85-6.23,11.47-1.5,3.86-2.24,8.6-2.24,14.21,0,7.1-.37,8.35-2.49,9.72-.87.62-1.87.87-2.74.87-1.62,0-4.86-1.37-4.86-5.98,0-1.12-.37-4.86-1.12-10.97-1.12-8.97-1.62-14.95-1.74-17.82s-.12-4.74-.12-5.61c0-3.74.25-7.35.75-10.72,1-6.11,2.62-9.6,4.86-10.47.62-.25,1.37-.37,1.99-.37Z"/>
    <path d="M1064.65,1570.7c1,0,1.99.25,2.87.87,1,.62,1.99,2.62,1.99,3.99,0,.5-1,4.11-2.99,10.84-2.87,8.85-5.23,16.45-7.1,22.93-.87,2.74-3.24,10.47-7.35,23.3-4.36,13.21-6.6,20.69-6.6,22.43,0,2.37-2.24,4.24-5.11,4.24-2.12,0-4.61-2.24-4.61-5.11,0-2.62,2.12-10.22,6.36-23.05,2.12-6.23,4.74-14.33,7.6-24.18,6.48-21.31,10.09-32.77,10.97-34.15.37-.62,1-1.12,1.87-1.62.75-.37,1.5-.5,2.12-.5Z"/>
    <path d="M1127.71,1569.45h.25c1,0,3.12,1.25,3.74,2.37.37.62.5,1.37.5,2.37,0,1.37-.25,3.24-.87,5.48-1.62,6.6-2.74,14.21-3.12,23.05-.37,8.85-.62,15.45-.62,19.69,0,7.1.37,13.33,1,18.69.25,2.12.75,4.61,1.37,7.48s1,4.61,1.37,4.98c.12.25.5.37.87.37s.62,0,1-.12c2.24-.62,6.98-.87,14.08-.87,2.87,0,6.11,0,9.72.12,4.86.12,8.35.25,10.47.25,1.37,0,3.49.12,5.48-.87.75-.37,1.5-.62,2.24-.62,1.12,0,2.12.5,3.12,1.37,1.37,1.37,1.5,1.62,1.5,3.74,0,1.62-.5,2.87-1.37,3.74-1.99,1.99-4.74,2.49-12.34,2.49-5.11,0-9.6-.12-13.58-.37-1.62-.12-3.24-.12-4.74-.12-6.11,0-10.84.5-14.33,1.62-1.74.62-3.12.87-4.11.87-.12,0-1.25.25-3.12-1.12-3.49-2.49-6.48-12.34-7.85-24.8-.37-3.37-.62-8.97-.62-16.82,0-.75,0-3.61.12-8.6,0-4.86.25-9.72.62-14.46,1.5-16.33,3.24-25.67,5.23-28.04.5-.62,1.25-1.12,2.24-1.5.75-.25,1.37-.37,1.74-.37Z"/>
    <path d="M1200.61,1568.58c1,0,2.99.37,4.11,2.24.37.62.62,1.5.62,2.74,0,1.74-.37,4.11-1.12,7.1-.62,2.87-1,5.11-1.12,6.48-.12,1.5-.25,4.74-.25,9.72,0,5.73.12,9.97.37,12.59.12,2.74.87,8.72,2.12,18.07,1.87,13.58,2.74,23.18,2.74,28.79v4.61l-1.37,1.37c-1,1-2.12,1.5-3.36,1.5-.5,0-1-.12-1.62-.25-2.87-1-3.49-2.12-3.61-8.47-.12-5.48-1.12-14.46-2.74-26.92-1.62-13.08-2.49-21.43-2.62-25.05-.12-3.61-.25-5.98-.25-6.85,0-5.36.5-10.84,1.5-16.2,1.37-7.85,2.49-10.22,5.11-11.21.5-.12,1-.25,1.5-.25Z"/>
    <path d="M1223.92,1570.95c2.12.62,3.12,1.74,4.11,5.61,1,3.74,2.37,7.48,3.99,11.09,1.62,3.74,3.36,8.22,5.11,13.58,4.36,12.34,6.98,19.94,8.1,22.93l4.98,13.71,1.87-4.36c2.87-6.6,8.1-16.95,15.83-31.28,7.23-13.33,11.22-21.19,11.84-23.55.87-2.99,2.12-3.74,4.49-3.74h.62c1.37.12,2.49.5,3.36,1.37.75.87,1.12,1.99,1.12,3.37,0,1.87-.62,4.11-1.87,6.98-1.37,2.87-4.61,9.22-9.84,18.82-8.1,14.83-13.71,26.04-16.82,33.52-3.24,7.6-4.98,13.46-5.11,17.57-.12,4.36-.87,5.48-3.99,6.48-.12.12-.37.12-.62.12-1,0-2.74-.62-3.74-1.62-.62-.62-1.25-2.37-2.12-5.48-1.25-5.11-4.49-14.83-9.6-28.91-4.24-11.71-6.85-19.19-7.98-22.56-1.12-3.36-2.87-8.1-5.36-14.21-1.99-4.74-3.24-8.35-3.86-10.97-.37-1.5-.62-2.74-.62-3.86,0-.62.12-1.25.25-1.62.37-1.12,1.25-1.99,2.37-2.62,1.87-1,1.87-.87,3.49-.37Z"/>
    <path d="M1348.04,1573.69c1.99,0,3.49.75,4.36,2.24.37.62.62,1.37.62,2.24,0,.62-.12,2.62-1.74,4.11-2.24,1.87-8.47,3.12-18.82,3.74-9.84.62-14.83,1.37-14.83,1.99,0,1-1.5,2.74-2.99,3.24-1.62.5-1.99,1.5-2.37,6.11v1.37c0,1.37.12,3.74.25,6.85.12,3.12.37,4.86.5,4.99h.12c.37,0,1.74-.37,4.36-1l4.24-1.12,16.95.12c9.22,0,14.71.12,16.33.25,1.62.12,2.87.75,3.61,1.87.87,1.12.87,4.49,0,5.61-1.5,2.12-2.87,1.99-7.23,1.99-2.12,0-5.11,0-8.85-.12-2.24-.12-4.36-.12-6.23-.12-8.97,0-14.71.5-17.32,1.5-1.37.62-2.62,1-3.49,1.12-.62.12-1,.37-1,.5,0,1.5,1.25,8.23,3.86,20.31,1.37,6.85,2.87,10.59,4.24,11.34.62.37,1.74.5,3.49.5,1.74.12,2.74.12,3.12.12,2.62,0,4.86-.12,6.73-.5,2.37-.37,5.86-1.12,10.72-2.37,4.74-1.12,7.6-1.99,8.72-2.37.87-.37,1.87-.62,3.24-.62.12,0,2.12-.12,3.99.75,2.99,1.5,2.87,3.99,2.87,4.61,0,2.12-1.37,4.86-4.74,4.86-.75,0-3.12.5-7.1,1.5-7.98,1.99-13.58,3.24-16.7,3.61-3.24.37-5.86.62-7.73.62-1.74,0-3.36-.12-4.98-.37-2.24-.25-4.36-.37-6.23-.37h-.75c-2.24,0-3.74-.75-4.49-2.24-.37-.62-1.25-4.49-2.74-11.34-1.62-6.85-2.87-12.96-3.86-18.07-2.37-13.33-3.61-23.68-3.61-31.28v-2.62l.12-5.23-1.12-.62c-2.37-1.12-2.24-3.61-2.24-4.49,0-1.12.37-1.99,1-2.87.37-.62,1.87-1.5,4.36-2.62,2.37-1.12,4.61-1.99,6.6-2.62,3.99-1.12,9.97-1.99,17.82-2.49,7.35-.37,12.46-1.12,15.33-1.99,1.37-.37,2.49-.62,3.61-.62Z"/>
    <path d="M1467.55,1570.7c3.86,0,6.36.25,7.35.75,3.12,1.62,2.49,4.36,2.49,4.36,0,1.87-.75,3.36-2.37,4.24-.5.37-2.74.5-6.85.5-3.61,0-7.1.12-10.22.5l-4.36.5-1,1.87c-2.37,4.74-3.74,11.96-3.99,21.81v4.11c0,11.46,1.25,24.18,3.61,38.13.62,3.36.87,6.11.87,7.98,0,1.37-.12,2.37-.5,2.99-.87,1.62-2.24,2.49-4.24,2.49-2.12,0-3.49-.75-4.36-2.37-.12-.37-.5-1.74-.87-4.24-.25-1.37-.62-4.24-1.12-8.47-2.12-14.21-3.12-26.67-3.12-37.51v-3.37c.12-8.22.87-14.46,1.99-18.82.37-1.37.5-2.24.5-2.49v-.12c-.12-.12-.25-.12-.5-.12-.62,0-1.87.12-3.49.37-2.74.37-6.11.5-10.09.5s-6.98-.25-8.72-.62c-5.73-1.25-8.6-3.49-8.6-6.6,0-1.12.37-2.12,1.12-2.99.87-1,2.12-1.5,3.61-1.5,1,0,2.12.25,3.36.62,2.62.87,5.61,1.25,8.85,1.25.5,0,1.87,0,3.99-.12,2.12-.12,7.6-.75,16.45-1.87,3.99-.5,10.34-1.37,11.34-1.5,1.12-.12,3.99-.25,8.85-.25Z"/>
    <path d="M1529.49,1572.19c3.86.12,6.6.5,8.23,1.12,1.74.62,3.12,1.12,4.24,1.25,4.74.62,8.47,1.99,11.34,4.36,4.74,3.86,7.98,9.72,9.6,17.32.62,2.62.87,6.23.87,10.97,0,.62.12,7.23-1,13.71-1.37,7.1-3.74,13.83-7.1,20.19s-7.23,11.34-11.46,14.71c-6.11,4.86-12.71,7.23-19.94,7.23-3.12,0-6.36-.5-9.72-1.37-10.47-2.87-19.81-12.09-23.68-23.05-1.99-5.73-2.99-11.84-2.99-18.44,0-6.11.87-12.09,2.62-17.7,2.37-7.6,5.98-13.83,10.72-18.82,6.11-6.36,13.21-10.22,21.31-11.34.37-.12,2.74-.12,6.98-.12ZM1527.12,1581.91c-.87,0-1.5,0-2.12.12-4.74.75-8.97,2.37-12.71,4.98-6.36,4.61-10.97,12.34-13.71,23.18-.37,1.62-.62,4.36-.75,8.35v2.24c0,4.86.75,9.35,2.12,13.71,1.87,5.36,4.86,9.6,8.97,12.96s7.48,5.23,10.09,5.36c2.62.12,4.11.25,4.61.25,4.24,0,8.47-1.25,12.59-3.74,5.98-4.11,12.21-13.71,15.2-23.68,2.37-7.98,2.49-15.7,2.49-18.82,0-2.87-.25-5.48-.62-7.85-1.12-5.61-4.36-11.46-7.35-12.96-.5-.25-1-.37-1.62-.37-.5,0-1,.12-1.5.25-.62.25-1.25.37-1.87.37-1.37,0-2.62-.62-3.99-1.75-.62-.62-1.5-1.12-2.62-1.74-1.37-.62-5.61-.87-7.23-.87Z"/>
    <path d="M1587.44,1573.44c1.87,1.37,2.12,3.37,2.12,4.49,0,.62-.12,1.37-.37,2.12-.87,2.37-1.62,6.36-2.12,11.71-.62,5.48-.87,10.09-.87,13.96v2.99c.75,16.57,2.62,28.29,5.48,35.02,3.61,8.1,7.98,12.34,13.33,12.46,2.12,0,4.86-.87,8.47-2.74s6.85-3.99,9.72-6.6c5.86-5.36,9.72-15.45,11.59-30.53.37-3.61.62-8.1.62-13.33v-4.74c-.12-6.23-.37-10.22-.5-12.09s-.62-3.61-1.5-5.23c-.62-1.12-.87-2.24-.87-3.24,0-.62.12-1.25.37-1.87,1.62-3.61,6.6-3.61,8.97,0,1.37,2.37,2.24,5.11,2.74,8.47.5,3.37.75,8.85.75,16.2,0,8.23-.37,14.83-1,19.81-.62,5.11-1.87,10.22-3.61,15.58-1.87,5.73-4.11,10.34-6.73,13.71-2.62,3.49-6.23,6.73-10.84,9.85-7.1,4.61-10.72,5.98-16.7,6.36h-1.62c-3.36,0-6.48-.75-9.22-2.12-5.11-2.62-9.35-7.6-12.71-15.2-3.24-7.35-5.23-17.07-6.11-29.04-.37-5.11-.5-9.97-.5-14.46,0-10.59,1-19.44,2.99-26.67.87-2.74,1.74-4.36,2.74-4.86,1.37-.87,3.99-.87,5.36,0Z"/>
    <path d="M1667.32,1570.32c1.62,0,2.87.75,3.74,2.12.12.37.5.5.87.5.12,0,.37,0,.5-.12,4.61-1.62,10.72-1.87,13.33-1.87,2.24,0,4.36.12,6.23.5,6.85,1.12,12.21,3.61,15.95,7.35,3.49,3.49,5.48,7.48,6.11,11.96.12.62.12,1.37.12,2.12,0,5.86-2.87,11.09-14.21,19.57l-1,.75.75,2.37c1.12,3.49,3.12,8.22,5.98,14.21,1.37,2.74,3.61,6.85,6.6,12.21s4.98,8.72,5.86,10.09c1.62,2.37,2.49,4.36,2.49,6.23,0,.37,0,.62-.12,1-.62,3.12-2.12,4.74-4.61,4.74-.25,0-.5,0-.87-.12-2.37-.12-3.12-1.25-5.48-5.86-.5-1.12-2.24-4.36-5.36-9.97-5.11-8.85-8.97-16.7-11.84-23.55-1.37-3.24-1.99-5.11-1.99-5.48s-.12-.62-.25-.62-2.12.87-5.98,2.74c-4.61,2.24-8.35,3.99-11.09,5.23l-5.48,2.37.12,2.74c.12,4.61,1,10.34,2.62,17.32.5,2.37.75,4.24.75,5.73,0,1.62-.25,2.74-.87,3.36-1.12,1.25-2.37,1.87-3.61,1.87-1.12,0-2.37-.5-3.49-1.62-1.37-1.25-2.74-6.36-3.99-15.2-1.37-9.1-1.99-19.19-1.99-30.16s.75-20.94,2.24-28.66c1.62-8.35,3.74-12.96,6.36-13.58.62-.12,1.12-.25,1.62-.25ZM1685.39,1580.79c-1,0-1.99,0-2.99.12-2.87.37-5.36,1-7.23,1.62-1,.37-1.5.87-1.5,1.5,0,2.12-1.99,4.36-3.99,4.36-1,0-1,.12-1.37,2.62-.37,1.99-.62,5.23-1,9.84-.37,4.61-.5,7.85-.5,9.84-.12,1.99-.12,3.37-.12,3.99,0,1.87.12,2.99.25,3.36.62,0,3.74-1.37,9.47-4.24,5.61-2.74,9.84-4.86,12.59-6.48,7.6-4.49,12.34-8.35,14.33-11.46.62-.87.87-1.87.87-2.87v-.62c-.75-5.36-4.49-8.85-11.22-10.59-2.62-.62-5.23-1-7.6-1Z"/>
    <path d="M1791.57,1576.18c4.49,0,10.59,1.25,14.7,5.61,3.99,4.11,5.36,7.48,6.73,15.33.5,2.87.75,5.61.75,8.1,0,1.99-.12,3.86-.5,5.48-.5,3.12-1.62,6.23-3.36,9.22-1.74,3.12-4.74,7.1-8.85,12.09-9.35,10.97-13.96,16.82-13.96,17.7v.12c.87-.12,1.87-.12,2.99-.25.87-.12,2.62-.25,5.23-.25,1.62,0,3.61,0,5.98.12,1.62.12,3.12.12,4.49.12,5.11,0,6.85-.12,10.97-3.24,1.62-1.25,3.12-1.87,4.24-1.87h.25c3.61,0,4.74,2.99,4.74,4.86,0,.87-.25,1.62-.62,2.49-1,1.87-3.36,3.61-6.98,5.36-2.24,1.12-4.11,1.74-5.73,1.87-1.62.25-4.11.37-7.6.37h-3.99c-2.49-.12-4.49-.12-6.11-.12-3.12,0-4.24,0-7.85,1-1.87.5-3.36.75-4.74.75s-3.74,0-5.86-3.49c-.37-.87-.62-1.99-.62-3.36v-1.25c.12-2.12.75-4.36,1.87-6.73,1.87-3.61,6.11-9.47,12.96-17.57,6.36-7.35,10.22-12.59,11.59-15.58.87-1.87,1.25-4.24,1.37-7.23v-2.12c0-4.36-.62-8.22-1.99-11.46-1.37-3.36-3.24-5.23-5.61-5.61-2.37-.37-3.99-.62-4.74-.62-2.99,0-5.73,1-8.22,3.12-1.62,1.37-2.49,2.99-2.49,4.61,0,.37,0,.87.12,1.25.12.75.25,1.37.25,1.99,0,1.62-.5,2.87-1.5,3.86-.87.87-1.99,1.25-3.36,1.25s-2.49-.5-3.36-1.37c-1.37-1.37-2.12-3.49-2.12-6.23,0-.62-.5-4.86,2.99-9.97,1.62-2.37,3.99-4.24,7.1-5.73,2.62-1.25,4.98-1.99,7.23-2.37,1.12-.12,2.37-.25,3.61-.25Z"/>
    <path d="M1862.73,1574.56c1.87,0,3.74.25,5.73.75,3.12.75,6.73,2.62,10.72,5.73,1.62,1.25,2.99,2.24,4.11,2.87.87.37,1.62,1,1.99,1.75.62.87,1.62,2.24,3.24,3.99,1.87,1.99,3.12,3.74,3.86,5.23,1.62,3.24,2.37,7.73,2.37,13.33,0,3.12-.5,8.22-1.37,15.45-.87,7.35-3.49,15.08-7.85,23.3-1.87,3.74-4.74,7.1-8.6,10.09-3.86,3.12-7.6,5.11-11.34,5.98-1.5.37-3.12.62-4.86.62-1.12,0-4.86,0-7.73-1.37-2.62-1.12-4.86-2.99-6.85-5.48-4.61-5.61-7.48-14.46-8.72-26.29-.37-2.99-.5-5.98-.5-8.85,0-6.98.87-13.96,2.49-20.94,3.36-14.08,11.34-24.43,20.19-25.92,1-.12,1.99-.25,3.12-.25ZM1862.97,1584.41c-1,0-1.99.25-2.87.62-4.11,1.5-8.6,9.1-10.97,17.94-1.5,5.86-2.24,11.84-2.24,18.07,0,4.11.62,9.84,1.74,17.32,1.12,7.6,3.99,12.46,8.35,14.7,1,.5,2.12.75,3.24.75,3.61,0,10.72-2.62,15.33-9.6,1.37-1.87,2.74-4.98,4.24-9.35,1.5-4.36,2.74-8.6,3.61-12.96,1.62-8.35,1.37-13.33,1.37-13.71,0-4.24-.37-7.1-1.25-8.6-.87-1.74-2.99-4.11-6.36-7.23-3.49-3.12-6.36-5.23-8.72-6.36-1.99-1.12-3.86-1.62-5.48-1.62Z"/>
    <path d="M1928.28,1576.18c4.49,0,10.59,1.25,14.7,5.61,3.99,4.11,5.36,7.48,6.73,15.33.5,2.87.75,5.61.75,8.1,0,1.99-.12,3.86-.5,5.48-.5,3.12-1.62,6.23-3.37,9.22-1.74,3.12-4.74,7.1-8.85,12.09-9.35,10.97-13.96,16.82-13.96,17.7v.12c.87-.12,1.87-.12,2.99-.25.87-.12,2.62-.25,5.23-.25,1.62,0,3.61,0,5.98.12,1.62.12,3.12.12,4.49.12,5.11,0,6.85-.12,10.97-3.24,1.62-1.25,3.12-1.87,4.24-1.87h.25c3.61,0,4.74,2.99,4.74,4.86,0,.87-.25,1.62-.62,2.49-1,1.87-3.37,3.61-6.98,5.36-2.24,1.12-4.11,1.74-5.73,1.87-1.62.25-4.11.37-7.6.37h-3.99c-2.49-.12-4.49-.12-6.11-.12-3.12,0-4.24,0-7.85,1-1.87.5-3.37.75-4.74.75s-3.74,0-5.86-3.49c-.37-.87-.62-1.99-.62-3.36v-1.25c.12-2.12.75-4.36,1.87-6.73,1.87-3.61,6.11-9.47,12.96-17.57,6.36-7.35,10.22-12.59,11.59-15.58.87-1.87,1.25-4.24,1.37-7.23v-2.12c0-4.36-.62-8.22-1.99-11.46-1.37-3.36-3.24-5.23-5.61-5.61-2.37-.37-3.99-.62-4.74-.62-2.99,0-5.73,1-8.22,3.12-1.62,1.37-2.49,2.99-2.49,4.61,0,.37,0,.87.12,1.25.12.75.25,1.37.25,1.99,0,1.62-.5,2.87-1.5,3.86-.87.87-1.99,1.25-3.36,1.25s-2.49-.5-3.36-1.37c-1.37-1.37-2.12-3.49-2.12-6.23,0-.62-.5-4.86,2.99-9.97,1.62-2.37,3.99-4.24,7.1-5.73,2.62-1.25,4.98-1.99,7.23-2.37,1.12-.12,2.37-.25,3.62-.25Z"/>
    <path d="M2024.11,1580.79c2.12,0,3.61.75,4.36,2.12.37.75.5,1.5.5,2.37,0,1-.12,3.61-2.12,4.74-1.12.5-7.35,1.37-18.69,2.49-8.97.87-13.71,1.5-14.21,1.87-.37.25-1,.37-1.62.37-.37,0-.87,0-1.25-.12-.5-.12-.87-.25-1.25-.25-.5,0-.87,0-.87,1.12,0,.5-.12,2.12-.5,4.98-.12,1.37-.75,5.23-.87,6.23l-.25,2.37,1.5-.62c2.87-1.12,5.61-1.74,8.22-1.74,2.99,0,6.6,1,10.97,2.99,4.11,1.99,8.35,6.36,10.34,10.47,1,1.99,1.5,4.24,1.62,6.85v1c0,2.12-.25,3.99-.75,5.48-1.12,3.12-3.49,6.73-7.23,10.84-5.48,6.36-8.6,8.35-12.09,8.35-2.37,0-3.99-.75-4.86-2.37-.62-1.5-.62-4.24,0-5.36,1-1.37,2.24-1.99,3.61-1.99.62,0,2.12-1.37,4.61-3.99,3.49-3.74,5.61-6.23,6.23-7.6.62-1.25.87-2.37.87-3.24,0-1-.25-2.12-.87-3.24-1.99-4.36-6.98-7.6-11.96-7.98h-.5c-2.37,0-4.74.87-7.23,2.74-2.87,2.37-6.48,2.37-8.85,0-.62-.5-1.37-1.5-2.12-3.12-.87-1.87-1.25-4.49-1.25-7.73,0-2.49.25-5.48.75-8.85.62-3.61.87-6.11.87-7.35,0-6.48,3.49-11.59,7.98-11.59,1.87,0,3.99,1.25,4.36,2.37.12.37.62.62,1.5.62h.87c.5,0,8.22-1,13.96-1.5,3.99-.37,8.47-.87,13.33-1.5,1.12-.12,1.99-.25,2.87-.25Z"/>
  </g>
  <rect class="cls-1" x="1691.98" y="1026.08" width="169.22" height="273.68"/>
</svg>