<?xml version="1.0" encoding="UTF-8"?>
<svg id="Layer_1" data-name="Layer 1" xmlns="http://www.w3.org/2000/svg" viewBox="0 0 1000 370.52">
  <defs>
    <style>
      .cls-1, .cls-2 {
        fill: #061e03;
      }

      .cls-2 {
        fill-rule: evenodd;
      }
    </style>
  </defs>
  <path class="cls-2" d="M630.69,175.36c-17.35,53.24-66.11,94.66-127.92,94.66-65.54,0-109.6-40.86-127.29-93.5,18.4,49.04,68.49,84.2,127.39,84.2s109.76-35.71,127.82-85.36M375.18,94.12C392.61,41.02,433.85,0,502.77,0c64.06,0,111.13,41.58,128.2,95.28-17.81-50.05-68.45-86.16-128.1-86.16s-109.52,35.55-127.68,85"/>
  <path class="cls-2" d="M505.48,81c.83-1.21,3.31-.4,5.07-.36,2.38.05,1.81,3.5,5.08,2.81,3.26-.68,3.31,3.06,7.96,2.93,4.68-.14-.93,1.61-.93,1.61,0,0-2.89-1.37-4.77-.46-.98.48.37-.27-1.27-1.61-2.57-2.07-2.23.39-6.54-3.22-3.03-2.54-5.94.3-4.6-1.7M528.91,175.24c1.86.74,4.17,2.57,5.24,5.35,2.52,6.6-1.23,1.25-1.23,11.19,0,9.16-2.62,7.67-2.62,7.67,0,0-.57,10.82-6.23,17.46-3.61,3.58-.81,6.54-.81,6.54,0,0-1.23.67-3,8.52-.57,2.54,2.73,6.46,5.6,5.48,2.14-.73-5.22-1.43,2.76-4.75,3.08-1.28.56-3.69.56-3.69,0,0,5.17-.38,8.08-8.08,5.14.74,3.23-2.37,13.81-4.61,2.8-.6,3.39-1.43,3.04-4.02-.35-2.59,3.45.38,13.94-10.16,8.27-8.32,5.29-10.19,11-13.21,6.04-3.17,6.59.28,8.61-2.31,4.63-5.9,2.99-5.54,4.91-9.3l1.36-2.09h-65.04ZM470.76,87.74c-1.72-4.18-1.6-10.95,2.07-17.21,2.31-3.91,8.44-5.64,13.79-3.58,6.01-4.67,7.44.35,12.76-1.92,6.98-2.99,3.07,7.9,9.84,10.66,2.79-7.34-6.38-12.86-.62-16.33,4.1-2.46,7.2-3.99,8.88-7.3,2.4-4.71,3.34-8.15,5.18-8.77,4.27-1.43,3.35-5.42,3.35-5.42,0,0,4.53,1.31,8.06-1.95-2.69-1.43-6.62-2.66-5.59-5.51,1.21-3.36,10.34,3.47,13.04-2.04-5.42-2.33-10.97-7.4-14.28-8.56-2.28,2.44-3.7,1.46-6.63-.83-4.96-3.87-5.38-.18-8.48-2.85-2.48,4.91,1.25,4.52,2.4,5.75,3.19,3.44-3.23-3.09-2.61,5.68.16,2.28-3.25,2.7-5.79-2.25-1.32-2.57-11.87-2.02-13.46-4.49,1.45-2.86,13.86-13.06,32.92-10.61-27.68-10.71-65.08,1-65.46,5.07-3.73,2.31-2.45,4.93-4.3,5.55-3.22,1.06-6.74,10.76-6.74,10.76,0,0,2.01,1.32-4.25,8.22-5.15,5.68-6.68,14.3-6.68,14.3,0,0,3.41,6.14,2.76,13.22-.49,5.39-.72,1.4,1.67,5.31,1.39,2.29,2.9,10.28,3.82,7.17,1.76-5.96-3.21-11.46-2.39-17.38.18.74,1.91-2.34,1.84.45-.19,7.31,9.13,21.39,9.13,21.39,0,0-3.48,3.47.15,3.47h15.63Z"/>
  <path class="cls-1" d="M272.4,107.32h-21.02l3.14,3.68v27.19c0,6.12-4.11,8.7-10.24,8.7s-10.25-2.58-10.25-8.7v-27.19l3.14-3.68h-21.02l3.14,3.68v27.64c0,13.57,7.71,18.8,24.99,18.8s24.99-5.23,24.99-18.8v-27.64l3.14-3.69Z"/>
  <polygon class="cls-1" points="345.35 107.32 327.61 107.32 330.77 111.01 330.77 135.78 305.34 107.32 289.4 107.32 292.55 111.01 292.55 152.8 289.4 156.49 307.12 156.49 303.98 152.8 303.98 127.61 330.99 156.49 342.21 156.49 342.21 111.01 345.35 107.32"/>
  <polygon class="cls-1" points="386.2 156.49 383.05 152.8 383.05 111.01 386.2 107.32 365.03 107.32 368.17 111.01 368.17 152.8 365.03 156.49 386.2 156.49"/>
  <polygon class="cls-1" points="456 107.32 438.2 107.32 441.34 111.01 428.78 138.07 416.66 111.01 419.8 107.32 398.85 107.32 422.11 156.49 432.51 156.49 456 107.32"/>
  <polygon class="cls-1" points="515.44 156.49 515.44 143.15 511.7 146.25 486.19 146.25 486.19 136.8 502.35 136.8 506.02 139.91 506.02 123.9 502.35 127.01 486.19 127.01 486.19 117.57 511.7 117.57 515.44 120.67 515.44 107.32 468.47 107.32 471.61 111.01 471.61 152.8 468.47 156.49 515.44 156.49"/>
  <path class="cls-2" d="M586.94,156.49l-13.52-19.39c6.65-2.66,11.28-7.74,11.28-14.89,0-8.19-5.08-14.89-19.29-14.89h-31.11l3.15,3.68v41.79l-3.15,3.68h20.87l-3.14-3.68v-13.93h6.27l9.56,13.93-3.13,3.68h22.21ZM569.75,123.24c0,3.54-3.45,6.42-8.24,6.42h-9.49v-12.09h11.29c3.28,0,6.44,1.63,6.44,5.68"/>
  <path class="cls-1" d="M650.14,142.12c0-7.82-6.36-12.16-15.56-15.11-5.98-1.84-14.43-3.16-14.43-7.07,0-1.92,2.31-3.25,6.35-3.25,5.4,0,14.21,2.21,21.09,5.46v-16.43l-3.96,3.75c-4.19-1.7-11.45-3.46-16.45-3.46-16.97,0-22.44,7.37-22.44,14.08,0,9.14,6.13,13.12,15.79,16.44,7.17,2.43,13.83,2.65,13.83,6.7,0,3.48-4.1,3.92-6.2,3.92-5.31,0-14.74-1.85-23.12-7.23v18.2l3.97-4.28c3.9,1.48,12.65,3.98,19.82,3.98,14.72,0,21.32-6.41,21.32-15.69"/>
  <path class="cls-2" d="M724.74,156.49l-24.53-49.17h-16.83l1.79,3.68-22.21,45.48h18.33l-3.14-3.68,2.46-5.16h23.78l2.39,5.16-3.14,3.68h21.11ZM700.73,138.8h-16.54l8.24-17.62,8.3,17.62Z"/>
  <polygon class="cls-1" points="783.85 156.49 783.85 143.15 780.1 146.25 756.1 146.25 756.1 111.01 759.23 107.32 738.36 107.32 741.51 111.01 741.51 152.8 738.36 156.49 783.85 156.49"/>
  <path class="cls-1" d="M770.53,114.14c0,3.44,2.82,6.22,6.3,6.22s6.32-2.77,6.32-6.22-2.82-6.22-6.32-6.22c-3.47,0-6.3,2.78-6.3,6.22M769.87,114.14c0-3.79,3.12-6.86,6.96-6.86s6.97,3.07,6.97,6.86-3.11,6.87-6.97,6.87-6.96-3.08-6.96-6.87"/>
  <path class="cls-2" d="M779.46,111.46c-.7-.57-1.51-.84-2.41-.84-2.05,0-3.58,1.57-3.58,3.54s1.5,3.58,3.55,3.58c.94,0,1.83-.33,2.53-.94v-.91c-.64.75-1.56,1.23-2.55,1.23-1.64,0-2.84-1.41-2.84-2.96s1.22-2.93,2.86-2.93c.99,0,1.79.39,2.45,1.11v-.88h0Z"/>
  <g>
    <path class="cls-1" d="M38.83,336.17l-2.17,2.48v18.69c0,2.32-.35,4.29-1.03,5.89-.69,1.6-1.72,2.91-3.1,3.91-1.38,1-3.15,1.74-5.3,2.22-2.15.48-4.76.72-7.82.72s-5.64-.24-7.78-.72c-2.14-.48-3.91-1.22-5.31-2.22-1.4-1-2.44-2.3-3.13-3.92s-1.03-3.57-1.03-5.88v-18.69l-2.17-2.48h14.52l-2.17,2.48v18.4c0,1.98.62,3.46,1.88,4.43s2.98,1.46,5.18,1.46,3.93-.48,5.19-1.45c1.26-.97,1.89-2.45,1.89-4.44v-18.4l-2.17-2.48h14.5Z"/>
    <path class="cls-1" d="M94.5,336.17l-2.17,2.48v30.77h-7.76l-18.63-19.55v17.06l2.17,2.48h-12.23l2.17-2.48v-28.29l-2.17-2.48h10.99l17.55,19.25v-16.77l-2.17-2.48h12.25Z"/>
    <path class="cls-1" d="M127.93,369.43h-14.6l2.17-2.48v-28.29l-2.17-2.48h14.6l-2.17,2.48v28.29l2.17,2.48Z"/>
    <path class="cls-1" d="M181.58,336.17l-16.21,33.25h-7.19l-16.06-33.25h14.47l-2.17,2.48,8.37,18.3,8.67-18.3-2.17-2.48h12.28Z"/>
    <path class="cls-1" d="M227.95,369.43h-32.43l2.17-2.48v-28.29l-2.17-2.48h32.43v9.03l-2.6-2.1h-17.6v6.38h11.14l2.55-2.1v10.81l-2.55-2.1h-11.15v6.38h17.6l2.6-2.1v9.03h0Z"/>
    <path class="cls-1" d="M282.61,369.43h-15.33l2.17-2.48-6.61-9.42h-4.34v9.42l2.17,2.48h-14.4l2.17-2.48v-28.29l-2.17-2.48h21.48c4.64,0,8.02.93,10.14,2.77,2.12,1.85,3.18,4.28,3.18,7.3,0,2.32-.7,4.34-2.09,6.06-1.39,1.72-3.3,3.05-5.7,3.99l9.33,13.12ZM270.74,346.93c0-.88-.21-1.6-.62-2.17-.41-.57-.95-.99-1.62-1.25-.67-.27-1.4-.4-2.2-.4h-7.79v8.18h6.56c1.63,0,2.98-.42,4.06-1.27,1.07-.85,1.61-1.88,1.61-3.09Z"/>
    <path class="cls-1" d="M331.52,359.71c0,1.61-.29,3.05-.87,4.33-.58,1.28-1.48,2.39-2.7,3.34-1.22.94-2.75,1.67-4.59,2.18-1.84.51-4.02.77-6.54.77-1.53,0-3.17-.15-4.93-.44-1.76-.29-3.45-.67-5.09-1.12-1.64-.45-2.86-.83-3.67-1.14l-2.75,2.9v-12.32c2.62,1.65,5.41,2.88,8.36,3.69,2.95.8,5.48,1.21,7.6,1.21,1.09,0,2.08-.18,2.96-.55.88-.36,1.33-1.07,1.33-2.11,0-.83-.39-1.46-1.16-1.9-.77-.44-2.2-.93-4.27-1.47-2.08-.54-3.45-.93-4.12-1.16-3.67-1.23-6.4-2.67-8.19-4.32-1.8-1.65-2.7-3.92-2.7-6.81,0-1.64.5-3.18,1.5-4.61s2.67-2.61,5.02-3.53c2.35-.92,5.34-1.38,8.99-1.38.84,0,1.74.06,2.7.18.96.12,2.02.3,3.18.55,1.16.24,2.18.5,3.08.77.89.27,1.69.55,2.4.84l2.75-2.53v11.12c-1.63-.75-3.34-1.4-5.13-1.96-1.79-.56-3.51-.99-5.16-1.29s-3.08-.45-4.29-.45c-1.36,0-2.43.2-3.21.61-.78.4-1.17.93-1.17,1.58s.29,1.15.88,1.61c.59.45,1.34.85,2.26,1.18.92.33,2.11.7,3.58,1.1,1.47.4,2.55.7,3.24.92,3.45,1.08,6.1,2.44,7.95,4.05s2.79,3.67,2.79,6.17Z"/>
    <path class="cls-1" d="M388.38,369.43h-14.57l2.17-2.48-1.64-3.5h-16.44l-1.69,3.5,2.17,2.48h-12.66l15.33-30.77-1.24-2.48h11.62l16.94,33.25ZM371.79,357.45l-5.72-11.9-5.67,11.9h11.4Z"/>
    <path class="cls-1" d="M434.49,369.43h-31.39l2.17-2.48v-28.29l-2.17-2.48h14.4l-2.17,2.48v23.83h16.57l2.6-2.1v9.03h0Z"/>
    <path class="cls-1" d="M520.83,369.43h-14.1l2.17-2.48v-15.97l-9.13,18.45h-4.82l-10.31-18.74v16.26l2.17,2.48h-11.92l2.17-2.48v-28.29l-2.17-2.48h12.13l11.19,20.35,10.24-20.35h12.38l-2.17,2.48v28.29l2.17,2.48Z"/>
    <path class="cls-1" d="M576.7,336.17l-2.17,2.48v18.69c0,2.32-.34,4.29-1.03,5.89-.69,1.6-1.72,2.91-3.1,3.91-1.38,1-3.15,1.74-5.29,2.22-2.15.48-4.76.72-7.82.72s-5.64-.24-7.78-.72c-2.14-.48-3.91-1.22-5.31-2.22-1.4-1-2.44-2.3-3.12-3.92s-1.03-3.57-1.03-5.88v-18.69l-2.17-2.48h14.52l-2.17,2.48v18.4c0,1.98.62,3.46,1.88,4.43s2.98,1.46,5.18,1.46,3.93-.48,5.19-1.45c1.26-.97,1.89-2.45,1.89-4.44v-18.4l-2.17-2.48h14.5Z"/>
    <path class="cls-1" d="M624.55,359.71c0,1.61-.29,3.05-.87,4.33-.58,1.28-1.48,2.39-2.7,3.34-1.22.94-2.75,1.67-4.59,2.18-1.84.51-4.02.77-6.54.77-1.53,0-3.17-.15-4.93-.44-1.76-.29-3.45-.67-5.09-1.12-1.64-.45-2.86-.83-3.67-1.14l-2.75,2.9v-12.32c2.62,1.65,5.41,2.88,8.36,3.69,2.95.8,5.48,1.21,7.6,1.21,1.09,0,2.08-.18,2.96-.55.88-.36,1.32-1.07,1.32-2.11,0-.83-.39-1.46-1.16-1.9-.77-.44-2.2-.93-4.27-1.47-2.07-.54-3.45-.93-4.12-1.16-3.66-1.23-6.4-2.67-8.19-4.32-1.8-1.65-2.7-3.92-2.7-6.81,0-1.64.5-3.18,1.5-4.61s2.67-2.61,5.02-3.53c2.35-.92,5.34-1.38,8.99-1.38.84,0,1.74.06,2.7.18.96.12,2.02.3,3.18.55,1.16.24,2.18.5,3.08.77.89.27,1.69.55,2.4.84l2.75-2.53v11.12c-1.63-.75-3.34-1.4-5.13-1.96-1.79-.56-3.51-.99-5.16-1.29-1.65-.3-3.08-.45-4.29-.45-1.36,0-2.43.2-3.22.61-.78.4-1.17.93-1.17,1.58s.29,1.15.88,1.61c.59.45,1.34.85,2.26,1.18.91.33,2.11.7,3.58,1.1,1.47.4,2.55.7,3.24.92,3.45,1.08,6.1,2.44,7.95,4.05,1.86,1.61,2.79,3.67,2.79,6.17Z"/>
    <path class="cls-1" d="M657.48,369.43h-14.6l2.17-2.48v-28.29l-2.17-2.48h14.6l-2.17,2.48v28.29l2.17,2.48Z"/>
    <path class="cls-1" d="M707.98,367.04c-.64.36-1.45.71-2.44,1.07-.99.35-2.09.68-3.28.96-1.2.28-2.48.52-3.87.72-1.39.19-2.7.29-3.95.29-2.69,0-5.22-.33-7.6-1-2.38-.67-4.5-1.7-6.35-3.12-1.86-1.41-3.31-3.23-4.37-5.45-1.06-2.22-1.59-4.8-1.59-7.74,0-2.43.44-4.71,1.34-6.82.89-2.11,2.21-3.95,3.96-5.52,1.75-1.57,3.89-2.78,6.41-3.64,2.53-.86,5.41-1.29,8.64-1.29,1.28,0,2.58.09,3.91.26,1.33.17,2.55.39,3.67.65,1.12.26,2.16.56,3.11.9l2.37-2.19v11.08c-1.28-.76-2.57-1.4-3.87-1.91-1.3-.51-2.68-.9-4.12-1.18-1.45-.28-2.95-.41-4.51-.41-3.41,0-5.95.94-7.61,2.84-1.66,1.89-2.49,4.3-2.49,7.24,0,2,.43,3.76,1.28,5.3s2.08,2.72,3.68,3.57c1.6.85,3.42,1.27,5.47,1.27,1.9,0,3.64-.2,5.21-.58s2.87-.84,3.91-1.35c1.03-.51,2.07-1.08,3.11-1.72v7.79h0Z"/>
    <path class="cls-1" d="M775.23,355.48l-2.22-2.56h12.28v13.32c-.72.44-1.67.89-2.85,1.35-1.18.46-2.5.89-3.96,1.26-1.46.38-2.94.68-4.44.9-1.49.22-2.96.33-4.39.33-3.61,0-6.98-.61-10.09-1.82-3.11-1.22-5.6-3.13-7.46-5.72-1.87-2.6-2.8-5.85-2.8-9.76s.98-7.16,2.95-9.76c1.97-2.6,4.51-4.49,7.63-5.7,3.12-1.2,6.37-1.8,9.77-1.8,2.42,0,4.42.18,6,.55,1.58.37,3.36.88,5.34,1.55l2.75-2.48v11.42c-2.2-1.2-4.4-2.14-6.58-2.82-2.18-.68-4.52-1.02-7.01-1.02-1.58,0-2.99.24-4.23.72s-2.3,1.17-3.16,2.06c-.87.89-1.53,1.95-1.98,3.18-.45,1.23-.68,2.6-.68,4.13,0,3.07.9,5.52,2.68,7.36,1.79,1.85,4.25,2.76,7.38,2.76,1.28,0,2.97-.19,5.07-.56v-6.86Z"/>
    <path class="cls-1" d="M838.41,369.43h-15.33l2.17-2.48-6.61-9.42h-4.34v9.42l2.17,2.48h-14.4l2.17-2.48v-28.29l-2.17-2.48h21.48c4.64,0,8.02.93,10.14,2.77,2.12,1.85,3.18,4.28,3.18,7.3,0,2.32-.7,4.34-2.09,6.06-1.4,1.72-3.29,3.05-5.7,3.99l9.33,13.12ZM826.53,346.93c0-.88-.21-1.6-.62-2.17-.41-.57-.95-.99-1.62-1.25-.67-.27-1.4-.4-2.2-.4h-7.79v8.18h6.56c1.63,0,2.98-.42,4.06-1.27,1.07-.85,1.61-1.88,1.61-3.09Z"/>
    <path class="cls-1" d="M894.26,352.77c0,3.99-.94,7.3-2.82,9.93-1.88,2.63-4.32,4.55-7.33,5.76-3,1.21-6.23,1.81-9.69,1.81s-6.68-.61-9.7-1.82c-3.02-1.22-5.48-3.15-7.38-5.78-1.9-2.64-2.85-5.94-2.85-9.9,0-3.03.56-5.67,1.68-7.91,1.12-2.24,2.63-4.06,4.54-5.47,1.91-1.4,4.03-2.43,6.37-3.09,2.34-.66,4.78-.98,7.34-.98s5.05.33,7.39,1c2.34.67,4.44,1.69,6.32,3.08,1.87,1.39,3.36,3.21,4.48,5.45,1.11,2.25,1.66,4.89,1.66,7.92ZM883.47,352.77c0-3.23-.73-5.75-2.18-7.56-1.45-1.81-3.74-2.71-6.87-2.71-2.07,0-3.78.42-5.15,1.25-1.36.83-2.36,2.02-2.99,3.55-.63,1.53-.95,3.36-.95,5.46,0,1.53.17,2.93.52,4.21.34,1.28.89,2.38,1.64,3.29.75.91,1.7,1.61,2.85,2.1,1.15.49,2.51.73,4.07.73s2.94-.24,4.1-.73c1.15-.49,2.09-1.19,2.82-2.1s1.27-1.98,1.61-3.23c.34-1.24.52-2.66.52-4.27Z"/>
    <path class="cls-1" d="M948.16,336.17l-2.17,2.48v18.69c0,2.32-.34,4.29-1.03,5.89-.69,1.6-1.72,2.91-3.1,3.91-1.38,1-3.15,1.74-5.29,2.22-2.15.48-4.76.72-7.82.72s-5.64-.24-7.78-.72c-2.14-.48-3.91-1.22-5.31-2.22-1.4-1-2.44-2.3-3.13-3.92s-1.03-3.57-1.03-5.88v-18.69l-2.17-2.48h14.52l-2.17,2.48v18.4c0,1.98.63,3.46,1.88,4.43s2.98,1.46,5.18,1.46,3.93-.48,5.19-1.45c1.26-.97,1.89-2.45,1.89-4.44v-18.4l-2.17-2.48h14.5Z"/>
    <path class="cls-1" d="M1000,347.2c0,4.77-1.53,8.06-4.6,9.86-3.07,1.8-7.06,2.7-11.96,2.7h-6v7.18l2.17,2.48h-14.4l2.17-2.48v-28.29l-2.17-2.48h18.53c2.7,0,5.27.31,7.69.93,2.42.61,4.45,1.74,6.1,3.38,1.65,1.64,2.47,3.88,2.47,6.72ZM989.51,347.78c0-1.74-.54-2.95-1.63-3.64-1.08-.69-2.64-1.03-4.68-1.03h-5.77v10.05h4.87c2.47,0,4.29-.39,5.46-1.17,1.17-.78,1.75-2.18,1.75-4.21Z"/>
  </g>
</svg>