<?xml version="1.0" encoding="UTF-8" standalone="no"?>
<!-- Created with Inkscape (http://www.inkscape.org/) -->

<svg
   xmlns:dc="http://purl.org/dc/elements/1.1/"
   xmlns:cc="http://creativecommons.org/ns#"
   xmlns:rdf="http://www.w3.org/1999/02/22-rdf-syntax-ns#"
   xmlns:svg="http://www.w3.org/2000/svg"
   xmlns="http://www.w3.org/2000/svg"
   xmlns:sodipodi="http://sodipodi.sourceforge.net/DTD/sodipodi-0.dtd"
   xmlns:inkscape="http://www.inkscape.org/namespaces/inkscape"
   width="742"
   height="113"
   id="svg8502"
   version="1.1"
   inkscape:version="0.48.2 r9819"
   sodipodi:docname="Neues Dokument 8">
  <defs
     id="defs8504" />
  <sodipodi:namedview
     id="base"
     pagecolor="#ffffff"
     bordercolor="#666666"
     borderopacity="1.0"
     inkscape:pageopacity="0.0"
     inkscape:pageshadow="2"
     inkscape:zoom="11.2"
     inkscape:cx="50.708128"
     inkscape:cy="101.82869"
     inkscape:document-units="px"
     inkscape:current-layer="layer1"
     showgrid="false"
     inkscape:window-width="1440"
     inkscape:window-height="853"
     inkscape:window-x="-4"
     inkscape:window-y="-4"
     inkscape:window-maximized="1" />
  <metadata
     id="metadata8507">
    <rdf:RDF>
      <cc:Work
         rdf:about="">
        <dc:format>image/svg+xml</dc:format>
        <dc:type
           rdf:resource="http://purl.org/dc/dcmitype/StillImage" />
        <dc:title></dc:title>
      </cc:Work>
    </rdf:RDF>
  </metadata>
  <g
     inkscape:label="Ebene 1"
     inkscape:groupmode="layer"
     id="layer1"
     transform="translate(0,-939.362)">
    <g
       id="g5075"
       transform="matrix(15.06775,0,0,-15.06775,428.56464,1002.526)">
      <path
         inkscape:connector-curvature="0"
         d="m 0,0 c 0.967,0 3.137,0 3.298,0 0.283,0 0.283,-0.09 0.283,-0.238 0,-0.148 0,-0.91 0,-1.217 0,-0.308 -0.049,-0.411 -0.496,-0.411 -0.448,0 -2.924,0 -3.041,0 -0.118,0 -0.278,-0.047 -0.278,0.189 0,0.238 0,0.779 0,0.941 0,0.161 -0.035,0.219 -0.212,0.219 -0.176,0 -0.586,0 -0.688,0 -0.103,0 -0.205,0 -0.205,-0.219 0,-0.221 0,-1.1 0,-1.659 0,-0.557 0.233,-0.908 0.952,-0.908 0.718,0 3.389,0 3.975,0 0.587,0 1.108,0.308 1.108,1.055 0,0.749 0,1.893 0,2.42 0,0.529 -0.397,0.94 -1.115,0.94 -0.719,0 -3.307,0 -3.485,0 -0.176,0 -0.33,0.028 -0.33,0.278 0,0.249 0,0.982 0,1.116 0,0.131 0.071,0.232 0.292,0.232 0.22,0 2.972,0 3.28,0 0.309,0 0.243,-0.071 0.243,-0.291 0,-0.22 0,-0.471 0,-0.645 0,-0.177 0.139,-0.177 0.299,-0.177 0.162,0 0.442,0 0.616,0 0.178,0 0.2,0.088 0.2,0.22 0,0.131 0,0.993 0,0.993 0,0.982 -0.345,1.339 -1.167,1.339 -0.822,0 -2.562,0 -3.471,0 -0.909,0 -1.397,-0.016 -1.407,-1.339 0,-0.682 0,-0.843 0,-0.876 l 0,-0.007 c 0,-0.039 0,-0.462 0,-1.047 C -1.349,0.289 -0.968,0 0,0"
         style="fill:#007bc2;fill-opacity:1;fill-rule:nonzero;stroke:none"
         id="path5077" />
    </g>
    <g
       id="g5079"
       transform="matrix(15.06775,0,0,-15.06775,533.79783,997.94532)">
      <path
         inkscape:connector-curvature="0"
         d="m 0,0 c 0,0 0,1.806 0,2.083 0,0.28 0.154,0.351 0.331,0.351 0.087,0 2.977,0 3.197,0 0.221,0 0.285,-0.057 0.285,-0.232 0,-0.176 0,-3.873 0,-4.124 0,-0.248 -0.138,-0.248 -0.285,-0.248 -0.145,0 -2.993,0 -3.212,0 C 0.095,-2.17 0,-2.126 0,-1.908 0,-1.686 0,0 0,0 z m 0.013,-3.607 c 0.835,0 2.865,0 3.686,0 0.821,0 1.23,0.274 1.23,1.243 0,0.969 0,4.003 0,4.898 0,0.899 -0.375,1.339 -1.186,1.339 -0.764,0 -2.884,0 -3.648,0 -0.762,0 -1.211,-0.312 -1.211,-1.339 0,-1.027 0,-2.813 0,-2.813 0,0 0,-1.616 0,-2.246 0,-0.631 0.293,-1.082 1.129,-1.082"
         style="fill:#007bc2;fill-opacity:1;fill-rule:nonzero;stroke:none"
         id="path5081" />
    </g>
    <g
       id="g5083"
       transform="matrix(15.06775,0,0,-15.06775,2.6445855,961.27044)">
      <path
         inkscape:connector-curvature="0"
         d="m 0,0 0.991,0 0,-4.604 -0.962,0 c -0.093,0 -0.167,-0.075 -0.167,-0.167 l 0,-1.105 c 0,-0.093 0.074,-0.165 0.167,-0.165 l 5.827,0 c 0.092,0 0.166,0.072 0.166,0.165 l 0,2.528 c 0,0.092 -0.073,0.167 -0.165,0.167 l -0.789,0 c -0.092,0 -0.167,-0.075 -0.167,-0.167 l 0,-1.256 -2.795,0 0,4.604 0.933,0 c 0.094,0 0.168,0.075 0.168,0.169 l 0,1.103 c 0,0.092 -0.074,0.167 -0.168,0.167 L 0,1.439 c -0.092,0 -0.167,-0.075 -0.167,-0.167 l 0,-1.103 C -0.167,0.075 -0.092,0 0,0"
         style="fill:#007bc2;fill-opacity:1;fill-rule:nonzero;stroke:none"
         id="path5085" />
    </g>
    <g
       id="g5087"
       transform="matrix(15.06775,0,0,-15.06775,166.97347,979.05052)">
      <path
         inkscape:connector-curvature="0"
         d="m 0,0 0.851,-1.533 0.009,0 -0.008,-0.003 -0.001,0.003 -1.715,0 L -0.87,-1.531 0,0 z m -4.042,-4.861 3.039,0 c 0.092,0 0.168,0.072 0.168,0.165 l 0,1.105 c 0,0.092 -0.076,0.167 -0.168,0.167 l -0.939,0 -0.006,0.003 0.439,0.775 0.002,10e-4 -0.002,-10e-4 2.978,0 -0.003,-0.003 0.431,-0.778 -0.004,0.003 -0.918,0 c -0.092,0 -0.168,-0.075 -0.168,-0.167 l 0,-1.105 c 0,-0.093 0.076,-0.165 0.168,-0.165 l 3.042,0 c 0.09,0 0.165,0.072 0.165,0.165 l 0,1.105 c 0,0.092 -0.075,0.167 -0.165,0.167 l -0.848,0 0,-0.003 -2.543,4.607 0.955,0 c 0.093,0 0.167,0.075 0.167,0.169 l 0,1.103 c 0,0.092 -0.074,0.167 -0.167,0.167 l -3.041,0 c -0.092,0 -0.166,-0.075 -0.166,-0.167 l 0,-1.103 c 0,-0.094 0.074,-0.169 0.166,-0.169 l 0.847,0 -2.616,-4.601 0.003,-0.003 -0.816,0 c -0.092,0 -0.167,-0.075 -0.167,-0.167 l 0,-1.105 c 0,-0.093 0.075,-0.165 0.167,-0.165"
         style="fill:#007bc2;fill-opacity:1;fill-rule:nonzero;stroke:none"
         id="path5089" />
    </g>
    <g
       id="g5091"
       transform="matrix(15.06775,0,0,-15.06775,211.70961,961.27044)">
      <path
         inkscape:connector-curvature="0"
         d="m 0,0 0.912,0 2.281,-4.604 -0.933,0 c -0.092,0 -0.166,-0.075 -0.166,-0.167 l 0,-1.105 c 0,-0.093 0.074,-0.165 0.166,-0.165 l 3.042,0 c 0.091,0 0.167,0.072 0.167,0.165 l 0,1.105 c 0,0.092 -0.076,0.167 -0.167,0.167 l -0.847,0 1.65,3.366 1.666,-3.366 -0.904,0 C 6.775,-4.604 6.7,-4.679 6.7,-4.771 l 0,-1.105 c 0,-0.093 0.075,-0.165 0.167,-0.165 l 3.04,0 c 0.093,0 0.167,0.072 0.167,0.165 l 0,1.105 c 0,0.092 -0.074,0.167 -0.167,0.167 l -0.853,0 2.25,4.604 0.893,0 c 0.092,0 0.165,0.075 0.165,0.169 l 0,1.103 c 0,0.092 -0.073,0.167 -0.165,0.167 l -3.042,0 C 9.063,1.439 8.988,1.364 8.988,1.272 l 0,-1.103 C 8.988,0.075 9.063,0 9.155,0 L 10.066,0 8.409,-3.378 6.736,0 7.62,0 c 0.092,0 0.165,0.075 0.165,0.169 l 0,1.103 c 0,0.092 -0.073,0.167 -0.165,0.167 l -3.042,0 C 4.486,1.439 4.412,1.364 4.412,1.272 l 0,-1.103 C 4.412,0.075 4.486,0 4.578,0 L 5.461,0 3.821,-3.348 2.16,0 3.042,0 c 0.093,0 0.167,0.075 0.167,0.169 l 0,1.103 c 0,0.092 -0.074,0.167 -0.167,0.167 L 0,1.439 c -0.091,0 -0.165,-0.075 -0.165,-0.167 l 0,-1.103 C -0.165,0.075 -0.091,0 0,0"
         style="fill:#007bc2;fill-opacity:1;fill-rule:nonzero;stroke:none"
         id="path5093" />
    </g>
    <g
       id="g5095"
       transform="matrix(15.06775,0,0,-15.06775,621.50718,1052.2944)">
      <path
         inkscape:connector-curvature="0"
         d="m 0,0 3.04,0 c 0.094,0 0.166,0.072 0.166,0.165 l 0,1.105 c 0,0.092 -0.072,0.167 -0.166,0.167 l -0.999,0 0,3.294 0.002,0 3.526,-3.294 -0.788,0 C 4.69,1.437 4.615,1.362 4.615,1.27 l 0,-1.105 C 4.615,0.072 4.69,0 4.781,0 l 3.041,0 c 0.093,0 0.167,0.072 0.167,0.165 l 0,1.105 c 0,0.092 -0.074,0.167 -0.167,0.167 l -0.968,0 0,4.604 0.968,0 c 0.093,0 0.167,0.075 0.167,0.169 l 0,1.103 c 0,0.092 -0.074,0.167 -0.167,0.167 l -3.041,0 C 4.69,7.48 4.615,7.405 4.615,7.313 l 0,-1.103 c 0,-0.094 0.075,-0.169 0.166,-0.169 l 0.957,0 0,-3.235 -0.004,0 -3.46,3.235 0.766,0 c 0.094,0 0.166,0.075 0.166,0.169 l 0,1.103 C 3.206,7.405 3.134,7.48 3.04,7.48 L 0,7.48 c -0.093,0 -0.167,-0.075 -0.167,-0.167 l 0,-1.103 C -0.167,6.116 -0.093,6.041 0,6.041 l 0.926,0 0,-4.604 -0.926,0 c -0.093,0 -0.167,-0.075 -0.167,-0.167 l 0,-1.105 C -0.167,0.072 -0.093,0 0,0"
         style="fill:#007bc2;fill-opacity:1;fill-rule:nonzero;stroke:none"
         id="path5097" />
    </g>
  </g>
</svg>
