<?xml version="1.0" encoding="UTF-8"?>
<svg id="_图层_1" data-name="图层 1" xmlns="http://www.w3.org/2000/svg" viewBox="0 0 1920 1080">
  <g>
    <path d="M92.18,220.08c0,23.92-9.45,33.2-19.47,33.2s-19.55-9.28-19.55-33.2,9.45-33.56,19.55-33.56,19.47,9.48,19.47,33.56ZM72.71,250.3c6.95,0,14.03-7.45,14.03-30.23s-7.08-30.58-14.03-30.58-14.11,7.53-14.11,30.58,7.08,30.23,14.11,30.23Z"/>
    <path d="M117.42,185.53h12.37v3.79h-.72l-11.66-1.01v-2.78ZM118.01,249.22l9.88-1.01h1.62l10.19,1.01v2.78h-21.69v-2.78ZM127,185.53h2.8l.65,29.32v37.14h-3.45v-66.46ZM127.04,185.53h5.5l25.5,61.31h-1.89l24.86-61.31h3.65l-27.02,66.46h-2.67l-27.93-66.46ZM171.82,249.22l11.66-1.01h1.62l12.06,1.01v2.78h-25.33v-2.78ZM181.68,222.02l.17-36.48h5.35c-.24,10.02-.24,20.27-.24,30.56v5.34c0,10.21,0,20.47.24,30.56h-5.76c.24-10.02.18-20.27.24-29.98ZM184.28,185.53h12.87v2.78l-12.06,1.01h-.81v-3.79Z"/>
    <path d="M223.04,253.28h42.39v4.09h-42.39v-4.09Z"/>
    <path d="M291.32,188.31v-2.78h12.87v3.79h-.81l-12.06-1.01ZM305,248.21l12.64,1.01v2.78h-26.32v-2.78l12.06-1.01h1.62ZM301.51,216.1c0-10.21,0-20.47-.24-30.56h5.84c-.24,10.02-.24,20.27-.24,30.56v6.36c0,9.59,0,19.44.24,29.54h-5.84c.24-10.02.24-20.27.24-30.56v-5.34ZM313.19,224.7h-9v-3.02h8.9c15.22,0,21.12-6.99,21.12-16.88,0-10.44-5.56-16.13-18.42-16.13h-11.6v-3.13h12.66c15.31,0,22.93,7.56,22.93,19.27s-8.17,19.9-26.59,19.9Z"/>
    <path d="M456.58,244.51v3.14l-3.48.8,2.06-14.07h3.85l-.39,13.94c-6.44,3.76-12.55,5.02-19.56,5.02-19.51,0-32.5-14.16-32.5-34.56s13.59-34.62,32.52-34.62c6.84,0,12.56,1.41,18.79,5.02l.39,13.94h-3.85l-2.06-14.42,3.72,1.09v3.62c-5.56-4.29-10.15-5.97-16.34-5.97-15.94,0-27.09,11.87-27.09,31.33s11.12,31.27,26.46,31.27c6.2,0,11.99-1.5,17.49-5.55Z"/>
    <path d="M481.53,249.22l9.1-.95h1.62l10.09.95v2.78h-20.81v-2.78ZM510.73,184.92h3.58l22.62,67.07h-5.61l-20.69-62.44,1.92-.58-20.52,63.02h-3.58l22.29-67.07ZM498.73,225.75h27.09l1.11,3.02h-29.36l1.17-3.02ZM519.55,249.22l12.07-.95h1.62l11.64.95v2.78h-25.33v-2.78Z"/>
    <path d="M565.46,185.53h12.37v3.79h-.72l-11.66-1.01v-2.78ZM566.05,249.22l9.88-1.01h1.62l10.19,1.01v2.78h-21.69v-2.78ZM575.04,185.53h2.8l.65,29.32v37.14h-3.45v-66.46ZM575.08,185.53h5.5l25.5,61.31h-1.89l24.86-61.31h3.65l-27.02,66.46h-2.67l-27.93-66.46ZM619.86,249.22l11.66-1.01h1.62l12.06,1.01v2.78h-25.33v-2.78ZM629.72,222.02l.17-36.48h5.35c-.24,10.02-.24,20.27-.24,30.56v5.34c0,10.21,0,20.47.24,30.56h-5.76c.24-10.02.18-20.27.24-29.98ZM632.33,185.53h12.87v2.78l-12.06,1.01h-.81v-3.79Z"/>
    <path d="M672.33,188.31v-2.78h12.87v3.79h-.81l-12.06-1.01ZM686.01,248.21l12.64,1.01v2.78h-26.32v-2.78l12.06-1.01h1.62ZM682.52,216.1c0-10.21,0-20.47-.24-30.56h5.84c-.24,10.02-.24,20.27-.24,30.56v6.36c0,9.59,0,19.44.24,29.54h-5.84c.24-10.02.24-20.27.24-30.56v-5.34ZM694.2,224.7h-9v-3.02h8.9c15.22,0,21.12-6.99,21.12-16.88,0-10.44-5.56-16.13-18.42-16.13h-11.6v-3.13h12.66c15.31,0,22.93,7.56,22.93,19.27s-8.17,19.9-26.59,19.9Z"/>
    <path d="M743.82,188.31v-2.78h25.15v2.78l-12.06,1.01h-1.62l-11.47-1.01ZM776.26,249.03c13.09,0,18.92-6.93,18.92-25.05v-38.44h3.41v41.01c0,18.13-8.25,26.82-22.9,26.82-13.77,0-22.73-7.58-22.73-26.03v-10.88c0-10.33,0-20.7-.24-30.91h5.84c-.24,10.13-.24,20.39-.24,30.91v9.31c0,17.19,7.05,23.27,17.92,23.27ZM795.75,189.32l-11.84-1.01v-2.78h23.43v2.78l-9.97,1.01h-1.62Z"/>
    <path d="M867.85,236.17c0-6.93-3.49-10.55-14.47-14.96l-3.69-1.48c-10.35-4.12-15.96-9.78-15.96-18.67,0-11.34,9.33-16.9,20.16-16.9,6.96,0,11.48,1.84,15.95,4.93l-.42,12.23h-3.7l-1.71-13.37,3.45,1.85v2.71c-4.48-3.68-8.3-5.06-13.76-5.06-8.74,0-15.14,4.14-15.14,12.58,0,7.09,4.57,11.08,12.12,14.08l3.9,1.54c14.01,5.55,18.1,10.75,18.1,19.72,0,11.22-9.35,17.97-22.16,17.97-7.63,0-14.65-2.54-18.78-5.28l.53-12.98h3.52l1.8,13.84-3.72-1.77v-2.86c5.82,4.32,9.81,5.77,16.52,5.77,10.24,0,17.45-4.63,17.45-13.9Z"/>
    <path d="M940.07,188.31v-2.78h25.74v2.78l-12.06,1.01h-1.62l-12.06-1.01ZM952.94,248.21v3.79h-12.87v-2.78l12.06-1.01h.81ZM950.02,185.53h5.84c-.24,10.1-.24,20.35-.24,32.78v5.15c0,8.26,0,18.52.24,28.53h-5.84c.24-10.1.24-20.35.24-30.56v-5.34c0-10.29,0-20.55-.24-30.56ZM988.25,234.92l-.99,17.07h-34.32v-3.29h31.8l-3.03,3.29,2.72-17.07h3.81Z"/>
    <path d="M1012.33,188.31v-2.78h25.74v2.78l-12.06,1.01h-1.62l-12.06-1.01ZM1026.01,248.21l12.06,1.01v2.78h-25.74v-2.78l12.06-1.01h1.62ZM1022.52,216.1c0-10.21,0-20.47-.24-30.56h5.84c-.24,10.02-.24,20.27-.24,30.56v5.34c0,10.21,0,20.47.24,30.56h-5.84c.24-10.02.24-20.27.24-30.56v-5.34Z"/>
    <path d="M1071.34,189.32l-11.36-1.01v-2.78h24.75v2.98l-12.01.81h-1.39ZM1067.38,185.53h5.67l20.77,61.37h-1.54l19.86-61.37h3.69l-22.11,67.15h-2.78l-23.56-67.15ZM1111.68,189.32l-10.91-.81v-2.98h22.6v2.78l-10.07,1.01h-1.62Z"/>
    <path d="M1145.71,188.31v-2.78h12.87v3.79h-.81l-12.06-1.01ZM1159.39,248.21l12.06,1.01v2.78h-25.74v-2.78l12.06-1.01h1.62ZM1155.9,216.1c0-10.21,0-20.47-.24-30.56h5.84c-.24,10.14-.24,20.15-.24,33.3v1.61c0,11.2,0,21.45.24,31.55h-5.84c.24-10.02.24-20.27.24-30.56v-5.34ZM1158.58,218.11h13.49c10.36,0,17.06-6.54,17.06-15.16s-5.37-14.28-17.26-14.28h-13.29v-3.13h13.45c14.38,0,22.55,6.23,22.55,17.41,0,9.31-7.13,16.61-19.05,17.58l-.35-.85c7.33.87,10.09,3.83,12.58,11.24l6.41,18.94-2.12-1.41,10.62.77v2.78c-1.42.36-3.79.69-6.63.69-5.35,0-7.14-1.46-8.15-4.77l-5.27-16.89c-2.32-7.58-4.92-9.95-13.57-9.95h-10.48v-2.98Z"/>
    <path d="M1265.19,188.83l2.63-3.29-2.4,16.67h-3.65l.91-16.67h53.13l.91,16.67h-3.65l-2.4-16.67,2.63,3.29h-48.1ZM1290.05,248.21l13.04,1.01v2.78h-27.71v-2.78l13.04-1.01h1.62ZM1286.56,216.1c0-10.21,0-20.47-.24-30.56h5.84c-.24,10.02-.24,20.27-.24,30.56v5.34c0,10.21,0,20.47.24,30.56h-5.84c.24-10.02.24-20.27.24-30.56v-5.34Z"/>
    <path d="M1399.05,218.79c0,21.18-13.33,34.56-29.19,34.56s-29.23-13.02-29.23-34.56,13.41-34.62,29.23-34.62,29.19,13.08,29.19,34.62ZM1369.86,250.06c15.01,0,23.1-14.73,23.1-31.27s-8.09-31.33-23.1-31.33-23.15,14.79-23.15,31.33,8.13,31.27,23.15,31.27Z"/>
    <path d="M1424.52,188.31v-2.78h25.15v2.78l-12.06,1.01h-1.62l-11.47-1.01ZM1456.95,249.03c13.09,0,18.92-6.93,18.92-25.05v-38.44h3.41v41.01c0,18.13-8.25,26.82-22.9,26.82-13.77,0-22.73-7.58-22.73-26.03v-10.88c0-10.33,0-20.7-.24-30.91h5.84c-.24,10.13-.24,20.39-.24,30.91v9.31c0,17.19,7.05,23.27,17.92,23.27ZM1476.45,189.32l-11.84-1.01v-2.78h23.43v2.78l-9.97,1.01h-1.62Z"/>
    <path d="M1512.23,188.31v-2.78h12.87v3.79h-.81l-12.06-1.01ZM1525.91,248.21l12.06,1.01v2.78h-25.74v-2.78l12.06-1.01h1.62ZM1522.42,216.1c0-10.21,0-20.47-.24-30.56h5.84c-.24,10.14-.24,20.15-.24,33.3v1.61c0,11.2,0,21.45.24,31.55h-5.84c.24-10.02.24-20.27.24-30.56v-5.34ZM1525.1,218.11h13.49c10.36,0,17.06-6.54,17.06-15.16s-5.37-14.28-17.26-14.28h-13.29v-3.13h13.45c14.38,0,22.55,6.23,22.55,17.41,0,9.31-7.13,16.61-19.05,17.58l-.35-.85c7.33.87,10.09,3.83,12.58,11.24l6.41,18.94-2.12-1.41,10.62.77v2.78c-1.42.36-3.79.69-6.63.69-5.35,0-7.14-1.46-8.15-4.77l-5.27-16.89c-2.32-7.58-4.92-9.95-13.57-9.95h-10.48v-2.98Z"/>
    <path d="M1633.12,248.14c6.39-7.05,12.75-14.25,17.1-19.21,10.03-11.46,13.71-18.01,13.71-25.23,0-8.08-4.85-14.2-13.56-14.2-3.59,0-7.11.84-11.4,3.34l4.18-3.26-3.3,8.03c-.93,2.69-1.98,3.92-3.75,3.92-1.41,0-2.5-.77-3.18-2.1,2.37-8.31,9.98-12.9,18.61-12.9,11.57,0,17.73,6.61,17.73,16.88,0,7.7-4.18,14.11-17.28,28.26-2.75,2.98-9.11,9.97-15.62,16.94l-.72-1.45h36.82v4.85h-39.35v-3.86Z"/>
    <path d="M1737.48,220.08c0,23.92-9.45,33.2-19.47,33.2s-19.55-9.28-19.55-33.2,9.45-33.56,19.55-33.56,19.47,9.48,19.47,33.56ZM1718,250.3c6.95,0,14.03-7.45,14.03-30.23s-7.08-30.58-14.03-30.58-14.11,7.53-14.11,30.58,7.08,30.23,14.11,30.23Z"/>
    <path d="M1763.84,248.14c6.39-7.05,12.75-14.25,17.1-19.21,10.03-11.46,13.71-18.01,13.71-25.23,0-8.08-4.85-14.2-13.56-14.2-3.59,0-7.11.84-11.4,3.34l4.18-3.26-3.3,8.03c-.93,2.69-1.98,3.92-3.75,3.92-1.41,0-2.5-.77-3.18-2.1,2.37-8.31,9.98-12.9,18.61-12.9,11.57,0,17.73,6.61,17.73,16.88,0,7.7-4.18,14.11-17.28,28.26-2.75,2.98-9.11,9.97-15.62,16.94l-.72-1.45h36.82v4.85h-39.35v-3.86Z"/>
    <path d="M1863.01,233.09c0-10.98-5.26-16.54-13.44-16.54-5.68,0-10.83,2.24-16,8.39l-1.27-1.09c5.02-7.29,11.18-10.88,18.37-10.88,10.71,0,17.63,7.45,17.63,19.34,0,12.7-8.46,20.96-19.2,20.96-12.59,0-20.03-10.37-20.03-26.46,0-19.63,13.77-37.26,37.4-40.3l.42,2.18c-21.58,4.43-32.5,18.64-32.5,37.53,0,14.56,5.34,24.07,14.9,24.07,7.7,0,13.71-6.55,13.71-17.21Z"/>
  </g>
  <g>
    <path d="M191.08,627.01l-100.53-168.1c-15.82-26.37-28.13-42.79-36.92-49.28-8.79-6.48-20.44-9.72-34.94-9.72v-36.59h224.13v36.59c-24.17,0-36.26,6.48-36.26,19.45,0,7.25,4.5,18.35,13.51,33.29l73.17,121.29,67.24-112.06c7.03-11.42,10.55-22.3,10.55-32.63,0-19.55-14.39-29.33-43.18-29.33v-36.59h153.26v36.59c-14.29,0-27.08,5.27-38.4,15.82-11.32,10.55-27.52,32.85-48.62,66.91l-84.71,137.11v99.21c0,20.43,3.46,34.66,10.38,42.68,6.92,8.02,21.26,12.03,43.01,12.03h6.92v36.59h-239.62v-36.59h7.25c22.41,0,36.97-4.12,43.67-12.36,6.7-8.24,10.05-22.36,10.05-42.35v-91.96Z"/>
    <path d="M436.37,674.47c0-45.26,16.04-80.75,48.12-106.46,32.08-25.71,70.86-38.56,116.35-38.56s83.06,12.47,116.02,37.41c32.96,24.94,49.44,60.92,49.44,107.94s-16.15,80.15-48.45,106.63c-32.3,26.48-71.42,39.72-117.34,39.72s-83.39-12.58-115.69-37.74c-32.3-25.16-48.45-61.47-48.45-108.93ZM549.42,671.18c0,42.19,3.9,71.69,11.7,88.5,7.8,16.81,21.37,25.21,40.71,25.21,15.6,0,28.07-7.03,37.41-21.09,9.34-14.06,14.01-44.05,14.01-89.98,0-41.75-4.18-70.04-12.52-84.87-8.35-14.83-21.54-22.25-39.55-22.25-14.29,0-26.48,6.32-36.59,18.95-10.11,12.64-15.16,41.15-15.16,85.53Z"/>
    <path d="M1056.41,773.35c-14.29,15.82-29.72,27.74-46.31,35.76-16.59,8.02-34.44,12.03-53.56,12.03-24.39,0-46.53-6.81-66.41-20.44-19.89-13.62-29.83-39.66-29.83-78.12v-103.49c0-16.92-2.69-28.45-8.08-34.61-5.39-6.15-16.31-9.23-32.79-9.23v-34.94h147.33v176.34c0,17.14,2.64,29.45,7.91,36.92,5.27,7.47,13.62,11.21,25.05,11.21,8.57,0,17.58-3.51,27.03-10.55,9.45-7.03,19.33-17.58,29.66-31.64v-103.49c0-16.48-2.59-27.9-7.75-34.28-5.16-6.37-17.3-9.56-36.42-9.56v-34.94h150.96v191.17c0,16.7,2.58,28.18,7.74,34.44,5.16,6.26,17.52,9.39,37.08,9.39v34.94c-5.93-.22-11.32-.33-16.15-.33-40.43,0-85.59,3.73-135.46,11.21v-47.79Z"/>
    <path d="M1391.68,575.92v140.74c0,23.51,1.54,39.06,4.61,46.64,3.08,7.58,9.45,11.37,19.12,11.37,14.5,0,26.15-9.01,34.94-27.03l32.3,10.88c-16.7,41.75-52.41,62.62-107.12,62.62-30.11,0-52.74-7.31-67.9-21.92-15.16-14.61-22.74-36.53-22.74-65.75v-157.55h-39.22v-35.6l8.24.33c26.58,0,49.33-8.46,68.23-25.38,18.9-16.92,30.32-38.45,34.28-64.6h35.27v89.65h81.08v35.6h-81.08Z"/>
    <path d="M1657.73,628v103.49c0,15.6,2.42,26.75,7.25,33.45,4.83,6.71,13.62,10.17,26.37,10.38v34.94h-183.59v-34.94c18.9,0,30.87-3.18,35.93-9.56,5.05-6.37,7.58-17.8,7.58-34.28v-271.26c0-16.48-2.58-27.9-7.75-34.28-5.17-6.37-17.09-9.56-35.76-9.56v-34.94l149.97-26.04v221.82c14.28-16.04,29.66-28.02,46.14-35.93,16.48-7.91,34.06-11.87,52.74-11.87,22.85,0,42.3,4.94,58.34,14.83,16.04,9.89,26.81,21.87,32.3,35.93,5.49,14.06,8.24,33.84,8.24,59.33v91.96c0,16.92,2.64,28.46,7.91,34.61,5.27,6.15,16.59,9.23,33.95,9.23v34.94h-183.59v-34.94c8.79-.66,16.59-3.3,23.4-7.91,6.81-4.61,10.22-16.59,10.22-35.93v-103.49c0-28.35-10.66-42.52-31.97-42.52-8.79,0-18.02,3.52-27.69,10.55-9.67,7.04-19.67,17.69-29.99,31.97Z"/>
  </g>
  <g>
    <path d="M633.39,915.24c0-4.28-2.16-6.51-8.93-9.23l-2.28-.91c-6.39-2.54-9.85-6.03-9.85-11.52,0-7,5.76-10.43,12.44-10.43,4.29,0,7.08,1.13,9.84,3.04l-.26,7.55h-2.28l-1.05-8.25,2.13,1.14v1.67c-2.76-2.27-5.12-3.12-8.49-3.12-5.39,0-9.34,2.55-9.34,7.76,0,4.37,2.82,6.84,7.48,8.69l2.41.95c8.64,3.43,11.17,6.63,11.17,12.17,0,6.93-5.77,11.09-13.67,11.09-4.71,0-9.04-1.57-11.59-3.26l.33-8.01h2.17l1.11,8.54-2.3-1.09v-1.77c3.59,2.67,6.06,3.56,10.19,3.56,6.32,0,10.77-2.86,10.77-8.58Z"/>
    <path d="M660.74,914.21c0,6.57,2.12,8.85,6.08,8.85,3.68,0,7.2-2.03,10.28-5.72h.92v2.2h-2.06l1.48-.62c-3.14,4.22-6.99,6.88-11.6,6.88-5.34,0-8.16-2.85-8.1-11.24l.15-16.53.99.87-5.95-.75v-1.59l7.5-.54.57.68-.27,8.44v9.06ZM677.09,925.43l-.24-7.08.07-20.27,1.06.83-5.95-.71v-1.62l7.45-.54.57.68-.22,8.44v19.09l-1.17-1.53,5.73.71v1.59l-7.31.42Z"/>
    <path d="M706.3,909.45c0-3.89-.06-7.18-.18-10.01l-5.34-.22v-1.59l7.41-1.92.73.46.27,4.99.1.23v19.02l-.07.44v6.12c0,3.97.06,9.47.18,12.83h-3.28c.12-3.36.18-8.81.18-12.78v-17.57ZM715.29,938.2v1.59h-14.39v-1.59l6.41-.71h.82l7.16.71ZM718.13,897.79c-3.04,0-6.19,1.35-9.91,5.52l-.51-.95c3.28-4.92,7.41-6.84,11.19-6.84,6.88,0,11.7,5.93,11.7,14.83,0,9.44-4.99,15.44-12.26,15.44-3.57,0-7.45-1.31-10.64-6.41l.58-.87c3.31,3.73,6.12,5.01,9.57,5.01,5.09,0,9.48-3.84,9.48-12.95,0-8.35-3.87-12.79-9.2-12.79Z"/>
    <path d="M753.32,909.45c0-3.89-.06-7.18-.18-10.01l-5.34-.22v-1.59l7.41-1.92.73.46.27,4.99.1.23v19.02l-.07.44v6.12c0,3.97.06,9.47.18,12.83h-3.28c.12-3.36.18-8.81.18-12.78v-17.57ZM762.31,938.2v1.59h-14.39v-1.59l6.41-.71h.82l7.16.71ZM765.16,897.79c-3.04,0-6.19,1.35-9.91,5.52l-.51-.95c3.28-4.92,7.41-6.84,11.19-6.84,6.88,0,11.7,5.93,11.7,14.83,0,9.44-4.99,15.44-12.26,15.44-3.57,0-7.45-1.31-10.64-6.41l.58-.87c3.31,3.73,6.12,5.01,9.57,5.01,5.09,0,9.48-3.84,9.48-12.95,0-8.35-3.87-12.79-9.2-12.79Z"/>
    <path d="M795.79,910.79c0-10.28,6.77-15.26,13.47-15.26s13.47,4.98,13.47,15.26-6.82,15.02-13.47,15.02-13.47-4.74-13.47-15.02ZM819.36,910.79c0-8.4-3.93-13.42-10.09-13.42s-10.09,5.02-10.09,13.42,3.88,13.18,10.09,13.18,10.09-4.77,10.09-13.18Z"/>
    <path d="M845.71,912.24v-2.93c0-3.89-.06-7.03-.18-9.86l-5.34-.22v-1.59l7.41-1.92.73.46.37,7.89v8.17c0,3.77.06,10.04.18,12.78h-3.36c.12-2.74.18-9,.18-12.78ZM840.53,923.42l6.33-.71h.82l6.58.71v1.59h-13.74v-1.59ZM847.17,904.02h2.24l-1.05.61c1.8-5.41,5.84-9.1,9.97-9.1,1.94,0,3.63.82,4.14,1.82,0,1.89-.81,2.82-2.52,2.82-1.22,0-2.12-.58-3.29-1.57l-1.39-1.18,2.98-.07c-4.35.79-7.37,3.87-9.63,9.67h-1.45v-2.99Z"/>
    <path d="M889.69,923.7c1.73,0,2.88-.44,4.43-1.34l.82,1.17c-1.45,1.48-3.47,2.27-5.98,2.27-4.34,0-6.35-2.44-6.27-7.24,0-1.28.06-2.45.06-4.39v-15.7h-6.05v-1.79l7.76-.58-1.75,1.29,1.14-9.82h2.23l-.34,10.39v20.47c0,3.7,1.41,5.26,3.95,5.26ZM894.39,896.32v2.15h-10.14v-2.15h10.14Z"/>
    <path d="M935.48,906.89c0,1.44-.15,2.58-.39,3.44l-22.45-.04v-1.8l17.61.04c1.69,0,2.18-.93,2.18-2.67,0-4.4-3.06-8.5-8.16-8.5-5.44,0-9.94,5.05-9.94,12.63,0,9.2,4.97,13.3,10.88,13.3,3.89,0,6.8-1.51,9.13-4.07l.97.84c-2.33,3.56-6.19,5.72-10.79,5.72-7.29,0-13.44-5.01-13.44-15.08,0-9.27,6.25-15.19,13.33-15.19s11.07,4.83,11.07,11.37Z"/>
    <path d="M966.35,923.54c3.57,0,6.24-1.48,9.22-5.32l.55,1.21c-2.74,4.39-6.18,6.38-10.42,6.38-7.21,0-12.16-6.14-12.16-14.75,0-9.54,5.55-15.52,12.92-15.52,3.32,0,6.74,1.62,9.72,6l-.54,1.11c-3.1-3.41-5.75-4.85-8.89-4.85-5.46,0-9.96,4.12-9.96,13.21,0,8.34,4.16,12.54,9.55,12.54ZM983.84,923.42v1.59l-8.73.46-.14-5.88v-18.08l.07-.5v-17.93l-5.41-.25v-1.59l7.65-1.55.85.49-.17,8.5v36.33l-.9-2.2,6.78.61Z"/>
    <path d="M1026.79,923.42l6.64-.75-1.58,2.34c.12-2.74.18-9,.18-12.78v-29.15l-5.34-.25v-1.59l7.5-1.55.92.49-.17,8.64v12.22l.07.65v18.69l-.36,5.02-7.89-.39v-1.59ZM1053.2,910.51c0-8.32-3.87-12.72-9.25-12.72-3.02,0-6.14,1.3-9.86,5.52l-.55-.99c3.28-4.92,7.45-6.8,11.22-6.8,6.88,0,11.7,5.9,11.7,14.76,0,9.37-4.99,15.51-12.25,15.51-3.57,0-7.45-1.57-10.64-6.67l.51-.87c3.31,3.73,6.34,5.27,9.74,5.27,4.99,0,9.38-3.99,9.38-13.03Z"/>
    <path d="M1070.35,937.68c.28-1.16,1.47-1.76,2.79-1.76,1.22,0,2.37.57,3.68,1.71l1.6,1.38-1.69.69-1.28-.98c3.9-.82,7.09-4.8,9.04-10.14l1.92-5.26,9.76-27.01h2.28l-11.69,31.25c-3.31,8.82-7.11,12.83-11.63,12.83-2.3,0-4.49-.96-4.78-2.72ZM1076.27,898.5l-5.64-.59v-1.59h12.89v1.61l-6.44.56h-.82ZM1085.98,927.24l-12.1-30.92h3.5l10.13,27.29-1.52,3.63ZM1096.11,898.5l-6.09-.59v-1.59h11.46v1.59l-4.55.59h-.82Z"/>
    <path d="M1133.71,925.01l15.12-44.26h11.88l15.51,44.26h-10.07l-7.1-21.36c-.85-2.75-1.72-5.77-2.6-9.04s-1.81-6.86-2.78-10.74h1.99c-.95,3.9-1.84,7.5-2.66,10.8-.82,3.3-1.64,6.29-2.45,8.99l-6.83,21.36h-10.01ZM1143.15,914.73v-7.1h23.62v7.1h-23.62Z"/>
    <path d="M1182.99,937.43v-45.63h8.76v5.58h.42c.42-.87,1-1.77,1.77-2.7s1.77-1.71,3.02-2.35c1.25-.63,2.81-.95,4.69-.95,2.46,0,4.7.63,6.74,1.9,2.04,1.27,3.67,3.17,4.89,5.7,1.22,2.54,1.83,5.69,1.83,9.48s-.59,6.8-1.78,9.34-2.8,4.48-4.84,5.79c-2.04,1.32-4.34,1.98-6.89,1.98-1.8,0-3.33-.31-4.57-.92-1.25-.61-2.26-1.37-3.04-2.27-.78-.9-1.38-1.8-1.8-2.69h-.27v17.73h-8.91ZM1198.85,918.42c1.54,0,2.85-.43,3.91-1.28,1.06-.85,1.86-2.03,2.41-3.53s.82-3.23.82-5.17-.27-3.65-.82-5.14-1.34-2.65-2.39-3.51c-1.05-.85-2.36-1.28-3.92-1.28s-2.82.41-3.89,1.23c-1.07.82-1.88,1.97-2.44,3.45-.55,1.48-.83,3.22-.83,5.24s.28,3.75.85,5.24,1.38,2.66,2.45,3.49c1.07.83,2.36,1.25,3.86,1.25Z"/>
    <path d="M1222.86,937.43v-45.63h8.76v5.58h.42c.42-.87,1-1.77,1.77-2.7s1.77-1.71,3.02-2.35c1.25-.63,2.81-.95,4.69-.95,2.46,0,4.7.63,6.74,1.9,2.04,1.27,3.67,3.17,4.89,5.7,1.22,2.54,1.83,5.69,1.83,9.48s-.59,6.8-1.78,9.34-2.8,4.48-4.84,5.79c-2.04,1.32-4.34,1.98-6.89,1.98-1.8,0-3.33-.31-4.57-.92-1.25-.61-2.26-1.37-3.04-2.27-.78-.9-1.38-1.8-1.8-2.69h-.27v17.73h-8.91ZM1238.72,918.42c1.54,0,2.85-.43,3.91-1.28,1.06-.85,1.86-2.03,2.41-3.53s.82-3.23.82-5.17-.27-3.65-.82-5.14-1.34-2.65-2.39-3.51c-1.05-.85-2.36-1.28-3.92-1.28s-2.82.41-3.89,1.23c-1.07.82-1.88,1.97-2.44,3.45-.55,1.48-.83,3.22-.83,5.24s.28,3.75.85,5.24,1.38,2.66,2.45,3.49c1.07.83,2.36,1.25,3.86,1.25Z"/>
    <path d="M1271.64,880.75v44.26h-8.91v-44.26h8.91Z"/>
    <path d="M1295.74,925.66c-3.39,0-6.31-.69-8.76-2.08-2.46-1.39-4.34-3.36-5.66-5.91-1.32-2.55-1.98-5.58-1.98-9.09s.65-6.43,1.96-9c1.31-2.57,3.16-4.58,5.55-6.03,2.4-1.45,5.21-2.17,8.44-2.17,2.18,0,4.21.35,6.09,1.04,1.88.69,3.53,1.74,4.96,3.13,1.43,1.4,2.54,3.14,3.34,5.24.8,2.1,1.2,4.57,1.2,7.43v2.5h-27.89v-5.58h23.53l-4.16,1.48c0-1.72-.26-3.22-.79-4.5s-1.31-2.27-2.35-2.97c-1.04-.7-2.32-1.05-3.85-1.05s-2.86.36-3.94,1.07-1.9,1.68-2.45,2.9c-.55,1.22-.83,2.61-.83,4.17v3.95c0,1.92.32,3.53.96,4.84.64,1.31,1.54,2.29,2.7,2.94,1.16.65,2.51.98,4.05.98,1.05,0,2-.15,2.85-.45.85-.3,1.58-.74,2.18-1.32s1.06-1.3,1.38-2.15l8.08,1.51c-.53,1.82-1.47,3.42-2.79,4.8-1.33,1.38-2.99,2.44-4.98,3.19-1.99.75-4.28,1.13-6.88,1.13Z"/>
  </g>
</svg>