<?xml version="1.0" encoding="UTF-8"?>
<svg id="_图层_1" data-name="图层 1" xmlns="http://www.w3.org/2000/svg" viewBox="0 0 1920 800">
  <defs>
    <style>
      .cls-1 {
        opacity: 0;
      }
    </style>
  </defs>
  <g>
    <path d="M252.55,130.45c-29.55,46.4-60,84.16-91.33,113.27-31.34,29.11-69.81,55.35-115.44,78.69l-3.34-7.98c44.11-30.15,80.9-62.88,110.38-98.2,29.48-35.31,55.18-77.21,77.1-125.68,5.44,1.77,13.98,4.95,25.59,9.53,11.61,4.59,18.15,7.39,19.62,8.42,1.46,1.04,2.11,2.15,1.95,3.33-.17,1.18-2.11,2.66-5.82,4.43-3.72,1.77-6.67,3.4-8.86,4.88,9.79,34.29,27.54,64.44,53.23,90.44,25.69,26.01,55.35,43.6,88.98,52.76l-1.31,9.31c-14.49.89-24.9,3.1-31.21,6.65-6.32,3.55-12.09,9.75-17.29,18.62-1.66,2.96-3.47,4.43-5.45,4.43-5.45,0-20.45-15.29-45-45.88-24.55-30.59-41.82-72.93-51.8-127.01ZM120.49,345.9c-7.43,0-12.75.89-15.97,2.66l-5.37-19.95c4.99,1.48,11.08,2.22,18.26,2.22h166.79l14.94-19.06c2.44-3.25,4.4-4.88,5.89-4.88s6.04,2.81,13.67,8.42l19.24,13.74c5.15,3.84,7.56,7.02,7.2,9.53-.35,2.51-3.71,4.36-10.07,5.54-6.36,1.18-11.23,3.25-14.62,6.21-3.39,2.96-8.86,10.2-16.43,21.72l-59.64,91.33c-6.29,9.46-12.33,18.99-18.13,28.59-5.81,9.6-9.26,14.77-10.35,15.52-1.1.73-3.68,1.48-7.74,2.22-4.07.73-8.58,1.11-13.53,1.11s-9.54-.82-13.77-2.44c-4.23-1.63-6.25-3.1-6.06-4.43.19-1.33,1.43-3.18,3.75-5.54,12.89-15.96,23.26-29.85,31.12-41.67l72.41-110.83H120.49ZM200.77,223.99c40.56,16.26,59.38,34.73,56.48,55.42-1.08,7.69-4.97,15.07-11.66,22.17-6.7,7.09-12.27,10.64-16.73,10.64-2.23,0-3.7-1.03-4.39-3.1-.7-2.06-1.4-6.79-2.09-14.19-1.35-20.39-10.1-41.82-26.25-64.28l4.65-6.65Z"/>
    <path d="M585.24,165.91h-94.73c-6.69,0-12.03,1.04-16.04,3.1l-4.81-18.62c4.99,1.48,11.08,2.22,18.26,2.22h202.45l22.75-29.7c1.86-2.66,3.65-3.99,5.39-3.99,2.47,0,8.71,6.28,18.71,18.84,9.99,12.57,14.78,20.39,14.34,23.5-.44,3.1-3.75,4.65-9.94,4.65h-118.5c-6.14,38.42-12.82,73.59-20.03,105.51h92.87l18.35-24.83c3.39-4.72,6.32-7.09,8.8-7.09s9.04,6.14,19.7,18.4c10.66,12.27,15.79,19.8,15.4,22.61-.4,2.81-4.06,4.21-10.99,4.21h-128.9c2.81,38.13,11.54,71.23,26.16,99.3,14.63,28.08,29.24,46.55,43.85,55.42,14.6,8.87,33.97,16.4,58.12,22.61l-1.74,7.09c-28.07.59-45.91,8.57-53.51,23.94-1.7,3.25-3.54,4.88-5.51,4.88s-3.82-.6-5.51-1.77c-1.69-1.18-9.06-9.17-22.08-23.94-13.03-14.78-22.7-28.82-29-42.12-6.3-13.3-11.05-25.34-14.24-36.13-3.19-10.79-5.54-26.23-7.05-46.33-1.51-20.09-1.23-41.08.86-62.95h-8.54c-13.47,60.59-35.45,107.29-65.94,140.09-30.49,32.81-77.98,60.14-142.47,82.02l-1.04-8.42c52.61-27.2,92.09-57.04,118.46-89.55,26.36-32.51,44.93-73.88,55.71-124.13h-112.93c-6.69,0-12.03,1.04-16.04,3.1l-4.81-18.62c4.99,1.48,11.08,2.22,18.26,2.22h118.5c5.67-28.08,11.49-63.24,17.43-105.51Z"/>
  </g>
  <g>
    <path d="M1272.42,345.48h59.44l4.67-33.25h-119.62c-6.69,0-12.03,1.04-16.04,3.1l-4.13-18.18c4.99,1.48,11.08,2.22,18.26,2.22h123.33l3.05-21.72c2.41-17.14,4.4-33.1,5.99-47.88,31.32,7.98,46.67,14.19,46.05,18.62-.33,2.37-5.58,6.21-15.74,11.53l-5.54,39.46h88.04l19.96-28.37c2.48-3.55,4.77-5.32,6.88-5.32s5.99,3.62,11.66,10.86c5.67,7.25,10.83,13.67,15.49,19.28,4.66,5.62,6.8,9.75,6.43,12.41-.37,2.66-2.67,3.99-6.88,3.99h-143.39l-4.67,33.25h51.64l11.84-12.86c2.02-2.06,3.78-3.1,5.27-3.1s5.29,2.88,11.42,8.65c6.12,5.76,10.54,9.97,13.27,12.63,2.72,2.66,3.91,5.25,3.55,7.76-.35,2.51-4.6,5.4-12.73,8.65l-2.74,19.51c-.71,5.03-1.19,9.31-1.43,12.86l-.5,8.87c-.25,1.77-1.54,3.48-3.88,5.1-2.33,1.63-6.77,3.62-13.29,5.98-6.53,2.37-11.4,3.55-14.61,3.55-2.23,0-2.82-3.69-1.79-11.08h-55.35l-4.67,33.25h62.04l11.34-14.63c2.14-2.95,4.15-4.43,6.01-4.43s7.22,4.14,16.09,12.41c8.87,8.28,13.13,13.6,12.8,15.96-.33,2.37-4.67,5.92-13.01,10.64l-3.8,27.04h7.43l19.59-25.71c2.1-2.66,3.9-3.99,5.39-3.99s5.09,3.4,10.83,10.2c5.73,6.8,10.38,12.93,13.95,18.4,3.56,5.47,5.16,9.53,4.79,12.19-.37,2.66-2.79,3.99-7.25,3.99h-56.84l-4.36,31.03c-1.12,7.98-1.87,14.19-2.25,18.62l-.75,10.64c-.37,2.66-1.68,4.88-3.91,6.65-2.24,1.77-7.06,3.99-14.49,6.65-7.43,2.66-12.76,3.99-15.98,3.99-1.74,0-2.31-2.07-1.73-6.21l2.87-20.39h-64.64l-6.98,49.65c-1.45,10.34-3.64,17.95-6.55,22.83-2.91,4.88-10.1,10.64-21.56,17.29-11.46,6.65-18.55,9.98-21.28,9.98s-4.37-2.37-4.95-7.09c-1.31-11.82-4.22-20.17-8.74-25.05-4.52-4.88-15.3-11.01-32.33-18.4l3.6-9.75c25.26,5.32,40.67,7.98,46.24,7.98s9.11-.96,10.62-2.88c1.51-1.93,2.66-5.69,3.45-11.3l4.67-33.25h-103.27c-6.69,0-12.03,1.04-16.04,3.1l-4.01-19.06c4.99,1.48,11.08,2.22,18.26,2.22h106.99l5.23-37.24h-126.67c-6.69,0-12.03,1.04-16.04,3.1l-3.82-20.39c4.99,1.48,11.08,2.22,18.26,2.22h130.39l4.74-33.69h-99.18c-6.69,0-12.03,1.04-16.04,3.1l-3.33-18.62c4.99,1.48,11.08,2.22,18.26,2.22h102.16l4.67-33.25h-59.44c-.54,3.84-1.84,6.5-3.91,7.98-2.07,1.48-6.5,3.48-13.29,5.98-6.8,2.51-11.8,3.77-15.02,3.77-1.99,0-2.64-1.48-1.98-4.43,3.23-14.19,5.84-28.37,7.84-42.56l1.99-14.19c1.75-12.41,3.14-24.97,4.18-37.68,13.41,5.03,23.25,9.91,29.52,14.63ZM1329.8,360.11h-59.44l-5.36,38.13h59.44l5.36-38.13ZM1402.32,544.54l5.23-37.24h-64.64l-5.23,37.24h64.64ZM1409.68,492.23l4.74-33.69h-64.64l-4.74,33.69h64.64ZM1413.6,398.24l5.36-38.13h-55.35l-5.36,38.13h55.35Z"/>
    <path d="M1580.2,330.85c.39,28.97-.41,50.47-2.38,64.5-1.97,14.04-5.93,24.98-11.85,32.81-5.93,7.83-13.11,11.75-21.53,11.75-3.96,0-7.16-1.03-9.59-3.1-2.44-2.06-3.34-5.32-2.72-9.75s4.34-11.53,11.16-21.28c14.5-20.39,23.82-45.22,27.93-74.48l8.98-.44ZM1632.4,321.54c15.85,3.55,27.43,7.47,34.75,11.75,7.32,4.29,10.36,10.86,9.11,19.73s-4.17,16.04-8.78,21.5c-4.61,5.47-8.9,8.2-12.85,8.2s-6.27-3.84-6.92-11.53c-1.39-14.77-6.97-27.93-16.74-39.46l-41.25,293.48c-.54,3.84-1.36,6.57-2.45,8.2-1.1,1.62-6.06,4.8-14.9,9.53-8.84,4.72-13.94,7.09-15.3,7.09s-1.81-1.63-1.36-4.88l4.17-24.38c1.62-9.75,3.32-20.99,5.11-33.69l43.93-312.55c2.08-14.77,3.67-27.93,4.8-39.46,29.3,8.28,43.64,14.63,43.01,19.06-.37,2.66-5.95,7.09-16.73,13.3l-7.6,54.09ZM1713.84,437.25h83.21l9.67-13.3c2.14-2.95,4.65-4.43,7.5-4.43s8.77,3.26,17.76,9.75c8.99,6.5,13.28,11.24,12.87,14.19-.42,2.96-5.37,6.5-14.87,10.64l-20.44,145.41c-1.87,13.3-3.94,22.31-6.21,27.04-2.28,4.72-7.51,9.82-15.71,15.29-8.2,5.47-13.6,8.2-16.2,8.2s-4.62-3.7-6.06-11.08c-1.93-9.17-5.29-16.11-10.07-20.84-4.79-4.73-13.72-9.02-26.8-12.86l2.05-9.31c16.92,2.95,28.29,4.43,34.11,4.43s9.61-.96,11.36-2.88c1.76-1.93,2.99-5.4,3.69-10.42l5.92-42.12h-91.01l-11.46,81.57c-.62,4.43-1.8,7.54-3.54,9.31-1.74,1.77-6.2,4.43-13.38,7.98-7.19,3.55-11.71,5.32-13.56,5.32s-2.45-2.37-1.79-7.09l3.17-17.29c1.91-11.82,3.88-24.98,5.92-39.46l16.01-113.94c2.74-19.5,4.74-36.35,5.99-50.54,12.05,4.14,22.67,9.61,31.87,16.4ZM1755.69,300.71h-56.46c-6.69,0-12.03,1.04-16.04,3.1l-4.01-19.06c4.99,1.48,11.08,2.22,18.26,2.22h60.18l1.68-11.97c2.08-14.77,3.68-27.93,4.8-39.46,29.71,7.09,44.28,12.71,43.69,16.85-.37,2.66-5.58,6.21-15.61,10.64l-3.36,23.94h44.95l14.81-20.84c3.39-4.72,5.95-7.09,7.68-7.09,2.97,0,8.72,5.32,17.26,15.96,8.53,10.64,12.57,17.59,12.12,20.84-.46,3.26-3.66,4.88-9.6,4.88h-89.15l-4.98,35.47h39l13.21-19.95c2.85-4.43,5.45-6.65,7.81-6.65s7.26,5.17,14.72,15.52c7.46,10.35,10.97,17.07,10.54,20.17-.44,3.1-3.25,4.66-8.46,4.66h-78.75l-5.48,39.01h58.32l14.57-19.06c3.14-4.72,6.07-7.09,8.8-7.09s8.46,5.4,17.23,16.18c8.76,10.79,12.91,17.81,12.46,21.06-.29,2.07-3.16,3.1-8.61,3.1h-198c-6.69,0-12.03,1.04-16.04,3.1l-3.95-19.51c4.99,1.48,11.08,2.22,18.26,2.22h65.75l5.48-39.01h-37.15c-6.69,0-12.03,1.04-16.04,3.1l-4.01-19.06c4.99,1.48,11.08,2.22,18.26,2.22h40.86l4.98-35.47ZM1787.43,532.12l4.98-35.47h-91.01l-4.98,35.47h91.01ZM1794.41,482.47l4.55-32.36h-91.01l-4.55,32.36h91.01Z"/>
  </g>
  <g>
    <path d="M244.12,594.22l-.49,9.38c-.03.62.06,1.03.29,1.23.23.2,1.01.35,2.36.44,1.35.09,2.68.14,4,.14,3.76,0,5.92-.28,6.46-.85.54-.57,1.29-3.66,2.24-9.29h.99c-.09,2.41-.09,4.2,0,5.35s.26,1.96.53,2.41c.27.46.73.8,1.4,1.04.66.24.98.58.96,1.01-.02.44-.38,1.08-1.06,1.92s-1.33,1.42-1.93,1.73c-.6.31-2.07.52-4.39.63-2.33.11-4.81.16-7.44.16s-4.58-.12-5.85-.36c-1.27-.24-2.12-.56-2.55-.96-.44-.4-.63-1.04-.58-1.92l.63-12.06h-3.35c-.91,4.13-2.14,7.11-3.68,8.94s-3.8,3.32-6.79,4.47-6.97,2.2-11.96,3.15l-.27-1.15c5.91-1.75,10.25-3.74,13.03-5.95,2.78-2.21,4.47-5.36,5.05-9.46h-4l-.11,2.03c0,.18-.04.33-.1.44-.06.11-.4.29-1.02.55-.62.26-1.31.48-2.09.66-.78.18-1.25.27-1.41.27s-.22-.11-.17-.33c.24-1.75.42-3.75.53-5.98l.34-6.58c.08-1.54.11-3.09.08-4.66,2.25.95,3.95,1.79,5.08,2.52h19.74l1.58-1.97c.23-.25.45-.38.65-.38s1.08.49,2.64,1.48c1.56.99,2.33,1.63,2.31,1.92-.02.29-.68.73-1.99,1.32l-.29,5.59c-.06,1.24-.1,2.19-.09,2.85l.02,1.7c-.03.51-.72.98-2.08,1.4-1.36.42-2.24.63-2.64.63-.26,0-.37-.22-.35-.66l.15-2.8h-4.39ZM238.45,567.46c-.22-3.4-1.22-5.94-3-7.62l.65-.82c2.67.66,4.67,1.35,6,2.08s1.97,1.57,1.92,2.52c-.03.58-.35,1.3-.96,2.14-.61.84-1.34,1.41-2.2,1.7h11.79l2.34-2.8c.39-.44.69-.66.91-.66.4,0,1.38.65,2.94,1.95s2.33,2.18,2.3,2.66c-.01.26-.39.38-1.12.38h-12.12c2.72,1.17,4.06,2.08,4.02,2.74-.02.29-.35.44-1.01.44-.55,0-1.14.3-1.77.9-.64.6-1.99,2.19-4.06,4.74h9.93l2.81-3.4c.31-.37.58-.55.8-.55.37,0,1.28.72,2.74,2.17,1.46,1.45,2.18,2.36,2.16,2.74-.02.38-.47.58-1.35.58h-44.47c-1.02,0-1.8.13-2.32.38l-.87-2.19c.76.18,1.67.27,2.73.27h25.33c1.55-3.03,2.89-5.98,4.03-8.83h-25.01c-.99,0-1.76.13-2.32.38l-.87-2.19c.76.18,1.67.27,2.73.27h17.33ZM227.81,592.63h20.78l.41-7.73h-20.78l-.41,7.73ZM228.32,569.26c4.96.99,7.38,2.54,7.27,4.66-.04.73-.4,1.51-1.08,2.33s-1.31,1.23-1.87,1.23-.96-.12-1.19-.36c-.23-.24-.43-.83-.62-1.78-.19-.95-.52-1.84-.98-2.66-.47-.82-1.13-1.75-1.99-2.77l.47-.66Z"/>
    <path d="M310.25,600.63c-5.25,3.84-11.08,6.65-17.5,8.45l-.38-1.1c6.51-2.85,11.7-6.23,15.56-10.15-2.68-3.95-4.31-9.19-4.88-15.74h-1.54c-.77,0-1.45.11-2.05.33l-.57-1.64-6.11,3.56-1.01,19.25c-.08,1.57-.4,2.68-.94,3.32-.55.64-1.48,1.3-2.79,1.97-1.32.68-2.12,1.01-2.41,1.01s-.51-.29-.67-.88c-.26-1.24-.79-2.17-1.58-2.77-.79-.6-2.48-1.31-5.07-2.11l.22-.99c2.84.22,4.85.33,6.04.33s1.93-.11,2.24-.33c.3-.22.47-.64.5-1.26l.78-14.86c-3.05,1.75-4.77,2.75-5.15,2.99-.38.24-.64.36-.79.36s-.26-.06-.35-.17c-.09-.11-.35-.54-.78-1.29-.44-.75-.97-1.75-1.6-2.99,2.48-.58,5.44-1.57,8.87-2.96l.47-8.94h-6.53c-.91,0-1.7.09-2.37.27l-.81-2.25c.76.18,1.67.27,2.73.27h7.07l.35-6.69c.11-2.12.18-4.09.2-5.92,4.07,1.17,6.09,1.99,6.07,2.47-.02.29-.55.79-1.61,1.48l-.45,8.66h1.48l1.99-2.47c.35-.44.67-.66.97-.66s1.05.65,2.28,1.95c1.23,1.3,1.84,2.09,1.82,2.38-.02.33-.35.49-1.01.49h-7.62l-.37,7.13,8.85-3.51.43,1.15-2.66,1.53c.29.04.8.06,1.53.06h8.39l.46-8.77h-5.81c-.84,0-1.52.13-2.05.38l-.81-2.36c.72.18,1.54.27,2.45.27h6.31l.33-6.31c.09-1.65.13-3.11.12-4.39,1.48.37,2.81.75,4,1.15,1.18.4,1.93.69,2.23.85.3.17.45.39.43.69-.02.29-.63.82-1.84,1.59l-.34,6.42h6.31l2.36-3.18c.31-.44.58-.66.8-.66.4,0,1.35.73,2.85,2.19,1.5,1.46,2.23,2.38,2.21,2.74-.02.4-.45.6-1.29.6h-13.33l-.46,8.77h3.78l1.71-2.19c.23-.29.46-.44.68-.44.29,0,1.24.48,2.83,1.45,1.59.97,2.38,1.59,2.37,1.87-.01.27-.34.53-.97.77-.63.24-1.09.5-1.36.79-.27.29-.55.73-.84,1.32-2.94,5.92-5.86,10.38-8.76,13.38,3.01,2.52,8.29,4.7,15.83,6.53l-.06,1.1c-1.83.07-3.16.36-3.99.85-.83.49-1.61,1.38-2.33,2.66-.2.33-.37.49-.52.49-.4,0-1.96-.8-4.67-2.39-2.71-1.59-5.34-3.57-7.89-5.95ZM310.83,594.71c2.59-2.78,5.04-6.98,7.35-12.61h-13.49c1.23,5.19,3.27,9.4,6.14,12.61Z"/>
    <path d="M353.73,578.81h-4.44c-.99,0-1.76.13-2.32.38l-.85-2.58c.76.18,1.67.27,2.73.27h4.99l.61-11.68c.1-1.83.14-3.45.15-4.88,4.78.84,7.16,1.57,7.12,2.19-.02.4-.82,1.08-2.41,2.03l-.65,12.34h1.7l1.95-2.63c.35-.44.69-.66,1.02-.66.29,0,.8.36,1.53,1.07s1.41,1.44,2.05,2.19c.64.75.95,1.26.93,1.54-.01.27-.39.41-1.12.41h-8.17l-.74,14.04,8.19-2.52.32,1.26-9.79,4.66c-3.94,1.9-6.89,3.44-8.85,4.61-.38.22-.64.33-.78.33-.4,0-1.41-1.68-3.03-5.04,4.44-.91,7.45-1.55,9.04-1.92l.81-15.41ZM377.37,581.77c-2.23,5.59-4.72,9.79-7.46,12.59s-6.67,5.27-11.79,7.43l-.67-.82c4.43-2.89,7.7-5.64,9.81-8.25,2.11-2.61,3.86-6.26,5.23-10.94h-1.7l-.89,1.32c-.4.58-.74.88-1.03.88s-.66-.26-1.11-.77l-2.75-3.02c1.22-.33,2.13-.68,2.71-1.04.58-.36,1.36-.99,2.32-1.86l13.4-11.95h-15.41c-.7,0-1.36.13-1.99.38l-1.24-2.41c.87.07,1.78.11,2.74.11h17.05l2.07-1.92c.46-.44.81-.66,1.05-.66s1.11.68,2.61,2.03,2.24,2.19,2.23,2.52c-.02.33-.54.57-1.57.71-1.03.15-2.12.69-3.27,1.65l-15.07,12.28h15.74l1.07-1.54c.35-.48.68-.71.97-.71s1.27.58,2.93,1.73c1.66,1.15,2.48,1.87,2.46,2.17-.02.4-.99,1.02-2.89,1.86-.75,6-1.37,10.56-1.84,13.68-.47,3.12-.9,5.31-1.28,6.55-.38,1.24-.95,2.27-1.72,3.07-.77.8-1.95,1.51-3.54,2.11-1.59.6-2.58.9-2.98.9-.29,0-.5-.29-.61-.88-.14-.88-.36-1.6-.68-2.17-.32-.57-.91-1.14-1.77-1.73-.87-.59-2.14-1.21-3.82-1.86l.44-1.1c3.17.84,5.44,1.26,6.79,1.26s2.3-.47,2.84-1.4,1.22-3.59,2.04-7.98c.81-4.39,1.38-8.46,1.68-12.23h-2.58c-1.39,4.21-2.85,7.74-4.37,10.61-1.52,2.87-3.03,5.12-4.52,6.75-1.49,1.63-3.45,3.16-5.86,4.61-2.42,1.44-5,2.68-7.76,3.7-2.76,1.02-5.41,1.74-7.95,2.14l-.28-.93c13.82-4.2,22.48-13.16,25.97-26.87h-3.73Z"/>
    <path d="M417.79,597.45l.86-16.4h-4.99c-.99,0-1.76.13-2.32.38l-.86-2.41c.76.18,1.67.27,2.73.27h4.83l1.38-2.25c.32-.58.65-.88.98-.88s1.26.51,2.8,1.54c1.54,1.02,2.29,1.75,2.27,2.19-.02.37-.78.88-2.27,1.54l-.86,16.45c.35.29.65.57.89.82,1.56,1.57,3.01,2.64,4.36,3.21,1.34.57,3.12.98,5.34,1.23,2.22.26,5.92.38,11.11.38s11.04-.26,17.53-.77v.93c-1.91.37-3.25.85-3.99,1.45-.74.6-1.26,1.33-1.54,2.19-.28.86-.48,1.33-.6,1.43-.12.09-.34.14-.67.14-2.38,0-5.75-.12-10.13-.36-4.37-.24-7.69-.48-9.94-.71-2.25-.24-3.98-.59-5.18-1.07-1.2-.48-2.4-1.22-3.61-2.22-1.21-1.01-2.45-2.29-3.72-3.87-.89-1.1-1.69-1.64-2.38-1.64-1.5,0-3.67,2.63-6.5,7.9-.16.33-.35.49-.57.49-.44,0-1.8-1.5-4.1-4.5,3.95-2.81,7.01-4.64,9.17-5.48ZM415.89,560.38c3.23,1.06,5.64,2.19,7.22,3.4,1.58,1.21,2.33,2.54,2.26,4-.05.99-.4,1.89-1.05,2.71-.65.82-1.35,1.23-2.12,1.23-.4,0-.69-.1-.86-.3-.17-.2-.48-1-.92-2.39-.44-1.39-1.08-2.72-1.93-4-.85-1.28-1.9-2.54-3.15-3.78l.54-.88ZM428.92,581.71c2.73,3.07,4.68,5.71,5.86,7.92,1.18,2.21,1.74,4.01,1.66,5.4-.05.99-.58,2.08-1.6,3.29-1.01,1.21-1.96,1.81-2.84,1.81-.69,0-1-.82-.91-2.47.33-6.36-.97-11.83-3.91-16.4.58-1.28,1.69-4.32,3.33-9.13,1.64-4.81,2.71-8.78,3.2-11.93,1.41.37,2.74.8,3.99,1.32,1.25.51,2,.85,2.25,1.01.25.16.37.35.35.55s-.29.4-.83.6c-.54.2-.93.41-1.16.63-.23.22-.45.57-.66,1.04-2.08,4.86-5,10.31-8.75,16.34ZM437.69,581.77c3.55,3.44,5.83,6.04,6.86,7.81,1.02,1.77,1.5,3.4,1.42,4.88-.08,1.48-.52,2.73-1.32,3.76s-1.62,1.54-2.47,1.54c-.44,0-.72-.17-.85-.49-.13-.33-.19-.84-.19-1.54,0-3.69-.43-6.7-1.31-9.02-.88-2.32-2.16-4.71-3.82-7.16l4.93-11.35c1.46-3.36,2.57-6.51,3.35-9.43,1.33.48,2.53,1.01,3.62,1.62,1.08.6,1.75,1.01,1.99,1.23.24.22.36.42.35.6s-.29.37-.82.55c-.54.18-.92.38-1.13.58-.21.2-.48.6-.8,1.18-2.66,4.68-5.92,9.76-9.79,15.24ZM446.56,581.99c6.44,5.56,9.58,9.76,9.43,12.61-.06,1.17-.4,2.26-1.02,3.26-.62,1.01-1.27,1.51-1.94,1.51s-1.11-.15-1.29-.44-.33-.8-.44-1.54c-.51-3.51-1.28-6.42-2.31-8.72-1.03-2.3-2.48-4.53-4.34-6.69.48-.8,1.31-2.59,2.48-5.37l3.56-8.23c1.2-2.67,2.1-5.14,2.69-7.4,4.09,1.5,6.12,2.5,6.09,3.02-.01.22-.31.44-.88.66-.58.22-.99.44-1.24.66-.25.22-.54.64-.86,1.26-2.48,4.75-5.78,9.89-9.91,15.41Z"/>
    <path d="M489.04,565.59h29.12l1.36-1.87c.31-.4.64-.6.99-.6s.96.31,1.84.93l2.33,1.64c.71.48,1.05.89,1.03,1.23-.02.35-.89.9-2.61,1.67l-1.73,32.96c-.08,1.54-.12,2.61-.12,3.24l-.03,1.7c-.02.37-.11.63-.26.79-.16.16-.87.47-2.13.91-1.27.44-2.03.66-2.28.66s-.37-.26-.34-.77l.28-5.37h-30.93l-.2,3.78c-.02.44-.13.75-.32.93s-.85.48-1.97.91c-1.12.42-1.83.63-2.14.63s-.46-.1-.45-.3c.01-.2.04-.39.08-.58.24-1.72.4-3.42.49-5.1l1.86-35.53c.08-1.54.11-3.09.08-4.66,2.94,1.1,4.96,2.03,6.05,2.8ZM516.58,601.07l1.76-33.62h-30.93l-1.76,33.62h30.93ZM498.21,574.91h8.33l1.36-1.81c.24-.37.49-.55.77-.55s1.12.47,2.53,1.4c1.41.93,2.11,1.56,2.09,1.89-.02.37-.7.77-2.04,1.21l-.64,12.28-.06,3.24c-.01.29-.18.54-.5.74-.32.2-.92.43-1.79.69-.87.26-1.47.38-1.8.38s-.48-.29-.45-.88l.13-2.47h-9.43l-.13,2.41c-.02.44-.08.73-.18.88-.1.15-.37.34-.83.58-.45.24-.98.45-1.6.63-.61.18-1.09.27-1.44.27s-.49-.27-.42-.82c.12-.88.21-2.01.29-3.4l.75-14.26c.08-1.54.11-3.09.08-4.66,1.83.55,3.5,1.3,4.98,2.25ZM506.22,589.39l.69-13.11h-9.43l-.69,13.11h9.43Z"/>
    <path d="M559.44,577.33l-3.57,8.45c-1.42,3.36-2.35,5.82-2.8,7.38-.45,1.55-.71,3.08-.79,4.58-.08,1.5.12,3.93.61,7.29.08.62.1,1.19.08,1.7-.08,1.57-.67,2.36-1.77,2.36-3.07,0-4.54-1.19-4.42-3.56.03-.55.16-1.26.39-2.14.23-.88.49-2.13.77-3.76.29-1.63.45-2.82.49-3.59.04-.77-.27-1.35-.92-1.75-.66-.4-2.15-.75-4.47-1.04l-.15-1.32c.88.04,1.85.05,2.93.05s2.05-.15,2.9-.44c.86-.29,1.59-.81,2.19-1.56.61-.75,1.35-1.95,2.24-3.59l5.11-9.65,1.17.6ZM544.46,574.47c3.67,1.17,6.08,2.12,7.25,2.85,1.17.73,1.73,1.59,1.67,2.58-.05.99-.35,1.93-.89,2.82-.54.9-1.1,1.34-1.69,1.34-.29,0-.52-.07-.67-.22-.16-.15-.37-.51-.63-1.1-1.05-2.27-2.92-4.7-5.59-7.29l.54-.99ZM548.65,561.37c3.83,1.54,6.4,2.79,7.7,3.76,1.3.97,1.92,1.99,1.87,3.07-.06,1.08-.39,2-1,2.77-.61.77-1.22,1.15-1.84,1.15-.33,0-.6-.09-.81-.27-.21-.18-.44-.58-.7-1.21-1.24-2.85-3.16-5.63-5.76-8.34l.54-.93ZM569.29,597.67c2.75,1.86,4.12,3.07,4.09,3.62-.02.37-.36.49-1.01.38-.18-.04-.38-.05-.6-.05s-.59.15-1.12.44c-.53.29-1.94,1.17-4.22,2.63-2.29,1.46-4.36,2.65-6.22,3.56-1.86.91-3.92,1.81-6.2,2.69l-.4-.77c5.38-3.58,10.61-7.75,15.68-12.5ZM574.68,567.02c-.38-1.83-.82-3.25-1.31-4.28s-1.37-2.1-2.63-3.24l.65-.93c2.64.48,4.6,1.07,5.86,1.78,1.26.71,1.86,1.64,1.8,2.77-.03.66-.27,1.4-.72,2.22-.45.82-.95,1.38-1.51,1.67h9.87l1.51-1.54c.39-.4.69-.6.91-.6s.94.42,2.15,1.26c1.22.84,2.04,1.43,2.46,1.75.42.33.62.67.6,1.01-.02.35-.51.55-1.49.6-.97.06-1.92.38-2.85.96-.93.58-2.18,1.72-3.77,3.4.46.33.92.74,1.39,1.23s.7.86.68,1.1c-.01.24-.38.36-1.12.36h-10.53l-.25,4.72h6.25l1.46-1.7c.23-.25.46-.38.68-.38s1.06.47,2.53,1.43c1.47.95,2.19,1.58,2.18,1.89-.02.31-.64.74-1.88,1.29l-.41,7.84c-.06,1.17-.11,2.82-.15,4.94.03.11.04.22.04.33-.03.55-.72,1.01-2.07,1.4s-2.16.58-2.42.58-.37-.2-.35-.6l.08-1.54h-17.16c-.04.73-.17,1.23-.38,1.48-.21.26-.85.53-1.91.82-1.06.29-1.84.44-2.35.44-.22,0-.3-.2-.24-.6.27-1.68.46-3.54.57-5.59l.47-8.99c.1-1.87.13-3.6.11-5.21,2.16.7,3.82,1.43,4.98,2.19h5.65l.25-4.72h-6.09c-.99,0-1.76.13-2.32.38l-.72-1.97c-.78.88-1.73,1.32-2.87,1.32-.69,0-1.24-.19-1.64-.58-.4-.38-.59-.8-.57-1.26.02-.46.42-1.09,1.2-1.89,1.89-1.94,3.24-4.68,4.05-8.23l1.31.05c.16,1.24.24,2.12.25,2.63h9.76ZM585.43,573.27c.81-2.16,1.32-3.66,1.55-4.5h-22.04c-.02,2.52-.53,4.48-1.51,5.87.65.15,1.43.22,2.35.22h15.03l1.92-2.19c.27-.29.53-.44.79-.44s.89.35,1.92,1.04ZM571.35,594.98l.27-5.21h-6.09l-.27,5.21h6.09ZM571.71,588.02l.26-4.93h-6.09l-.26,4.93h6.09ZM575.73,599.21c7.48,1.75,11.75,3.18,12.83,4.28s1.58,2.29,1.51,3.56c-.04.8-.25,1.54-.64,2.19-.38.66-.84.99-1.37.99s-1.24-.62-2.12-1.86c-1.73-2.52-5.32-5.23-10.76-8.12l.55-1.04ZM575.95,589.77l-.27,5.21h6.75l.27-5.21h-6.75ZM576.3,583.08l-.26,4.93h6.75l.26-4.93h-6.75Z"/>
    <path d="M620.55,591.58h-5.54l-.29,5.43c-.02.33-.06.56-.12.69-.06.13-.38.36-.94.69-.57.33-1.22.62-1.96.88-.75.26-1.2.38-1.36.38s-.22-.2-.16-.6c.26-1.46.45-3.27.56-5.43l1.27-24.29c.08-1.54.11-3.09.08-4.66,1.71.73,3.28,1.59,4.69,2.58h4.44l1.29-1.64c.35-.44.67-.66.94-.66s.84.27,1.68.82l2.12,1.43c.57.37.84.72.82,1.07s-.7.87-2.06,1.56l-.95,18.1c-.07,1.39-.12,2.6-.13,3.62v2.19c-.03.48-.67.94-1.92,1.4-1.25.46-2.01.69-2.29.69s-.4-.18-.38-.55l.19-3.67ZM615.12,589.55h5.54l1.07-20.45h-5.54l-1.07,20.45ZM650.09,604.53h-17.77l-.2,3.84c-.02.44-.17.75-.43.93-.27.18-.96.44-2.1.77s-1.94.49-2.41.49c-.22,0-.3-.18-.25-.55.27-1.65.46-3.47.56-5.48l.82-15.63c.08-1.54.11-3.09.08-4.66,1.83.66,3.49,1.39,4.98,2.19h17.22l1.37-1.97c.24-.33.48-.49.74-.49s.92.33,1.98.99c1.06.66,1.9,1.2,2.52,1.62.62.42.92.83.9,1.23-.02.4-.75.97-2.17,1.7l-.64,12.17c-.07,1.39-.11,2.71-.1,3.95l-.03,1.59c-.02.29-.09.51-.23.66-.14.15-.5.36-1.1.63-.6.27-1.28.51-2.04.71-.76.2-1.28.3-1.55.3s-.4-.15-.39-.44l.24-4.55ZM649.26,580.51h-13.38c-.05.99-.13,1.57-.23,1.75-.1.18-.48.42-1.13.71-.66.29-1.31.52-1.96.69-.65.17-1.07.25-1.27.25s-.27-.18-.22-.55c.26-1.54.45-3.36.56-5.48l.65-12.5c.08-1.54.11-3.09.08-4.66,2.18.88,3.91,1.77,5.18,2.69h12.06l1.31-1.97c.28-.44.57-.66.88-.66s1.23.55,2.76,1.65c1.53,1.1,2.29,1.83,2.27,2.19-.02.37-.72.88-2.11,1.54l-.48,9.21c-.09,1.72-.13,2.89-.13,3.51v1.81c0,.4-.69.93-2.04,1.59s-2.18.99-2.49.99-.46-.15-.44-.44l.12-2.3ZM650.51,596.52h-17.77l-.33,6.25h17.77l.33-6.25ZM632.84,594.66h17.77l.33-6.36h-17.77l-.33,6.36ZM649.65,573.16h-13.38l-.29,5.48h13.38l.29-5.48ZM636.37,571.29h13.38l.32-6.14h-13.38l-.32,6.14Z"/>
    <path d="M701.83,564.11c-4.57,7.6-9.47,13.31-14.71,17.11.36.07,1,.11,1.91.11h15.74l2.05-2.47c.27-.33.52-.49.74-.49.4,0,1.32.65,2.75,1.95,1.43,1.3,2.14,2.11,2.12,2.44-.01.22-.37.33-1.06.33h-21.88c-.99,0-1.76.13-2.32.38l-.67-1.81c-3.31,2.45-7.53,4.77-12.65,6.96l-.72-.99c5.43-3.14,9.95-6.74,13.56-10.78,3.61-4.04,7.4-9.97,11.35-17.79,1.01.33,2.33.82,3.98,1.48,1.65.66,2.54,1.07,2.68,1.23.14.16.2.3.2.41-.02.29-.28.48-.8.55-.52.07-.89.15-1.11.22,3.76,9.1,11.4,15.15,22.9,18.15l-.05,1.04c-1.49-.11-2.82.05-3.97.49-1.16.44-2.28,1.26-3.36,2.47-.27.29-.52.44-.74.44-.44,0-1.94-.99-4.51-2.96-2.57-1.97-4.85-4.48-6.84-7.51-2-3.03-3.53-6.69-4.58-10.97ZM693.18,592.19h-12.83c-.99,0-1.76.13-2.32.38l-.86-2.36c.76.18,1.67.27,2.73.27h31.48l2.52-3.07c.39-.44.69-.66.91-.66.44,0,1.47.77,3.09,2.3,1.62,1.54,2.42,2.44,2.41,2.71-.01.27-.3.41-.84.41h-20.73c.92.55,1.38.95,1.36,1.21-.01.26-.28.41-.79.47-.52.05-1.41.69-2.68,1.89-4.16,3.95-7.61,7.04-10.36,9.27l21.5-1.15c-1.43-2.7-3.45-5.39-6.05-8.06l.48-.71c3.63,1.86,6.57,3.75,8.81,5.65,2.24,1.9,3.3,3.97,3.19,6.2-.07,1.32-.37,2.41-.89,3.29-.52.88-1.07,1.32-1.66,1.32-.37,0-.65-.16-.85-.47-.2-.31-.46-.97-.77-1.97-.31-1.01-.8-2.2-1.46-3.59-15.17,2.08-23.9,3.64-26.18,4.66-.26.11-.48.16-.64.16s-.34-.21-.54-.63c-.2-.42-.69-1.76-1.49-4.03,1.89-.48,3.32-1.03,4.28-1.67.97-.64,2.63-2.57,4.99-5.79,2.36-3.22,3.76-5.23,4.21-6.03Z"/>
  </g>
  <g>
    <path d="M51.43,584.38c.39-7.45,1.92-12.85,4.58-16.22s6.07-5.05,10.23-5.05c2.55,0,4.7.63,6.43,1.9s3.03,3.19,3.89,5.77c.86,2.58,1.16,6.34.9,11.27-.45,8.59-2.01,14.65-4.67,18.19-2.66,3.54-6.05,5.31-10.17,5.31-2.84,0-5.17-.84-6.98-2.51s-3.08-4.04-3.81-7.09c-.55-2.34-.69-6.2-.41-11.58ZM56.52,583.6c-.42,7.91.12,13.34,1.61,16.28,1.19,2.4,3.02,3.6,5.5,3.6s4.21-1.1,5.54-3.31c1.67-2.77,2.7-7.84,3.09-15.23.41-7.85-.12-13.21-1.59-16.07-1.25-2.44-3.12-3.66-5.61-3.66-2.34,0-4.25,1.2-5.73,3.61-1.48,2.41-2.42,7.33-2.8,14.78Z"/>
    <path d="M123.91,569.96l-9.56,17.94c-3.59,6.74-6.55,12.62-8.88,17.66h-1.16c-.63-1.72-2.45-6.15-5.46-13.27l-9.27-21.52-1.18,22.43c-.27,5.22-.22,8.19.16,8.89.38.71,1.66,1.06,3.84,1.06h1.08l-.1,1.83c-2.69-.13-4.87-.2-6.56-.2-1.22,0-3.66.07-7.31.2l.1-1.83h1.89c1.28,0,2.14-.18,2.58-.55.44-.37.74-1.04.89-2,.39-2.71.67-5.63.84-8.76l.86-16.42c.21-3.96.26-6.59.15-7.86-.04-.66-.3-1.16-.78-1.51-.47-.35-1.45-.52-2.92-.52h-1.54l.1-1.83c3.36.14,5.47.2,6.34.2,1.1,0,2.67-.07,4.71-.2,2.07,5.21,4.47,10.94,7.2,17.21l6.82,15.7,7.82-14.54c2.74-5.09,5.89-11.21,9.44-18.38,2.41.14,4.11.2,5.1.2,1.14,0,3.2-.07,6.19-.2l-.1,1.83h-1.9c-1.71,0-2.77.29-3.18.88-.41.59-.71,2.71-.9,6.37l-1.11,21.21c-.25,4.72-.19,7.43.17,8.12s1.46,1.04,3.28,1.04h1.66l-.1,1.83c-2.68-.13-5.25-.2-7.71-.2-2.71,0-5.54.07-8.51.2l.1-1.83h1.92c1.53,0,2.47-.33,2.82-1s.66-3.53.93-8.6l1.24-23.59Z"/>
    <path d="M133.77,609.25h30.41l-.16,2.96h-30.41l.16-2.96Z"/>
    <path d="M178.96,566.86c-.28,2.79-.5,5.75-.67,8.91l-.87,16.57c-.31,5.82-.3,9.08,0,9.78s1.43,1.04,3.37,1.04h2l-.1,1.83c-3.42-.13-6.11-.2-8.08-.2-1.74,0-4.83.07-9.26.2l.1-1.83h2.61c1.22,0,2.01-.15,2.37-.45.36-.3.62-.91.76-1.83.15-.92.4-3.73.76-8.43l.81-15.49.23-6.01c.09-2.5-.09-4.02-.56-4.58-.46-.56-1.65-.84-3.57-.84h-1.45l.1-1.83c2.41.1,5.48.15,9.19.15,2.19,0,4.62-.06,7.29-.17,1.76-.08,3.1-.12,4.01-.12,4.68,0,8.04.85,10.08,2.55,2.02,1.7,2.95,4,2.8,6.9-.11,2.11-.83,4.13-2.15,6.08-1.32,1.94-3.13,3.51-5.42,4.69s-4.71,1.77-7.24,1.77c-1.16,0-2.6-.18-4.32-.55l-.47-2.18c1.68.43,3.09.64,4.23.64,2.67,0,4.83-.81,6.48-2.42s2.55-3.83,2.7-6.63c.14-2.71-.58-4.82-2.18-6.34-1.59-1.52-4.04-2.28-7.35-2.28-1.88,0-3.95.36-6.21,1.07Z"/>
  </g>
  <g>
    <path d="M742.63,606.75l.08-1.62,10.59-10.45c4.02-3.95,6.73-7.15,8.15-9.62,1.42-2.47,2.18-4.75,2.29-6.86.14-2.61-.5-4.7-1.92-6.27-1.42-1.57-3.36-2.35-5.84-2.35-1.62,0-3.11.29-4.46.87-.97.43-1.68.96-2.11,1.6-.44.64-1.13,2.44-2.08,5.4h-1.77c.8-3.77,1.27-6.5,1.42-8.18,1.53-1.53,3.16-2.64,4.88-3.34,1.72-.7,3.64-1.04,5.77-1.04,3.75,0,6.68,1.06,8.78,3.18,2.1,2.12,3.07,4.9,2.88,8.34-.16,2.98-1.31,5.9-3.46,8.76s-5.7,6.47-10.65,10.82l-5.93,5.77h10.6c4.49,0,7.87-.13,10.13-.41l.28.26c-.23,1.1-.36,1.89-.38,2.35-.02.37.02,1.24.12,2.61l-.3.17c-3.82-.13-8.08-.2-12.76-.2-4.91,0-9.68.07-14.31.2Z"/>
    <path d="M778.6,586.16c.39-7.45,1.92-12.85,4.58-16.22,2.66-3.37,6.07-5.05,10.23-5.05,2.55,0,4.7.63,6.43,1.9,1.73,1.27,3.03,3.19,3.89,5.77.86,2.58,1.16,6.34.9,11.27-.45,8.59-2.01,14.65-4.67,18.19-2.66,3.54-6.05,5.31-10.17,5.31-2.84,0-5.17-.84-6.98-2.51-1.81-1.67-3.08-4.04-3.81-7.09-.55-2.34-.69-6.2-.41-11.58ZM783.69,585.37c-.42,7.91.12,13.34,1.61,16.28,1.19,2.4,3.02,3.6,5.5,3.6s4.21-1.1,5.54-3.31c1.67-2.77,2.7-7.84,3.09-15.23.41-7.85-.12-13.21-1.59-16.07-1.25-2.44-3.12-3.66-5.61-3.66-2.34,0-4.25,1.2-5.73,3.61-1.48,2.41-2.42,7.34-2.8,14.78Z"/>
    <path d="M810.96,606.75l.08-1.62,10.59-10.45c4.02-3.95,6.73-7.15,8.15-9.62,1.42-2.47,2.18-4.75,2.29-6.86.14-2.61-.5-4.7-1.92-6.27-1.42-1.57-3.36-2.35-5.84-2.35-1.62,0-3.11.29-4.46.87-.97.43-1.67.96-2.11,1.6-.44.64-1.13,2.44-2.08,5.4h-1.77c.8-3.77,1.27-6.5,1.42-8.18,1.53-1.53,3.16-2.64,4.88-3.34,1.72-.7,3.64-1.04,5.77-1.04,3.75,0,6.68,1.06,8.78,3.18,2.1,2.12,3.06,4.9,2.88,8.34-.16,2.98-1.31,5.9-3.46,8.76-2.15,2.86-5.7,6.47-10.65,10.82l-5.93,5.77h10.6c4.49,0,7.87-.13,10.13-.41l.28.26c-.23,1.1-.36,1.89-.38,2.35-.02.37.02,1.24.12,2.61l-.3.17c-3.82-.13-8.07-.2-12.75-.2-4.91,0-9.68.07-14.31.2Z"/>
    <path d="M845.1,597.85l1.52-.84.66,1.31c1.19,2.36,1.99,3.74,2.39,4.15.53.56,1.36,1.04,2.49,1.42,1.13.39,2.45.58,3.96.58,3.23,0,5.8-.94,7.71-2.83,1.91-1.89,2.95-4.6,3.14-8.14.16-3.09-.55-5.53-2.13-7.3-1.58-1.77-3.74-2.65-6.49-2.65-1.59,0-3.02.31-4.31.93-1.29.62-2.45,1.59-3.49,2.9l-1.23-.41c.45-3.37.81-7.66,1.08-12.88.17-3.27.18-6.11.04-8.53l.51-.29c3.02.27,6.13.41,9.32.41,3.87,0,7.59-.14,11.16-.41l.33.29c-.22.97-.35,1.72-.38,2.26-.03.5.02,1.29.14,2.35l-.36.32c-2.19-.13-4.31-.2-6.33-.2-4.06,0-7.93.07-11.63.2-.25,1.47-.62,5.49-1.1,12.06,1.49-1.13,2.89-1.92,4.21-2.38,1.32-.46,2.81-.69,4.47-.69,3.59,0,6.43,1.07,8.51,3.22,2.08,2.15,3.03,4.95,2.85,8.39-.23,4.32-2.15,8.1-5.77,11.36-3.62,3.25-7.79,4.88-12.51,4.88-1.2,0-2.23-.11-3.1-.33-.87-.22-1.88-.65-3.02-1.29-.27-1.12-.51-2.01-.73-2.67l-1.9-5.19Z"/>
  </g>
  <path d="M961.86,260.46c1.29.77,2.06,1.55,2.06,2.06,0,.77-.77,1.29-2.06,2.06l-8.77,5.42v99.84c0,19.61.52,35.6,1.29,47.21v1.55c0,3.87-1.03,4.9-6.71,7.22-2.58,1.03-4.13,1.55-4.9,1.55-1.55,0-1.81-1.29-1.81-3.35v-18.83h-55.47v24.51c0,3.35-.52,4.13-5.16,6.19-2.32,1.03-3.87,1.55-5.16,1.55-2.06,0-2.58-1.81-2.58-6.19v-1.81c.52-14.45.77-36.38.77-50.31v-107.07c0-13.16-.26-17.54-.77-25.28l15.74,12.9h12.12c6.97-16.51,13.16-36.12,17.29-51.34l16.25,8.51c2.06,1.03,3.1,1.81,3.1,2.58s-1.03,1.29-2.84,1.55c-3.61.52-6.19,2.32-8.51,5.93l-20.38,32.76h31.73l8.51-11.87,16.25,12.64ZM940.97,326.51v-61.4h-55.47v61.4h55.47ZM940.97,399.52v-67.34h-55.47v67.34h55.47ZM1076.67,262.27c1.55,1.03,2.06,1.81,2.06,2.58s-.52,1.29-2.06,2.32l-8.26,4.9c-1.81,66.82-3.87,111.71-5.42,133.9-1.81,23.99-4.13,31.73-23.99,42.83-.52.26-1.03.52-1.29.52-1.03,0-1.55-1.03-2.32-3.1-2.84-8.77-8.77-12.64-32.25-18.83l.26-4.13c14.45,3.35,24.25,5.42,30.96,5.42,12.64,0,14.71-6.71,16-21.93,2.32-25.03,4.9-77.66,6.19-139.83h-60.37c-11.09,24.51-20.38,41.02-32.77,58.82l-2.84-1.81c17.03-30.96,34.31-78.69,44.12-114.55l15.22,7.74c2.58,1.29,3.87,2.32,3.87,3.35s-1.29,1.81-4.13,2.32c-2.84.52-4.9,2.58-8,9.54-4.64,10.84-9.03,20.38-12.9,28.9h54.18l7.48-12.12,16.25,13.16ZM986.63,308.19c20.9,11.35,31.48,21.67,34.05,28.9.77,2.32,1.29,4.64,1.29,6.97,0,6.97-3.87,12.38-7.48,12.38-3.87,0-5.16-1.55-6.19-6.45-2.84-12.38-10.58-26.32-23.48-39.47l1.81-2.32Z"/>
  <rect class="cls-1" x="1031.12" y="313.2" width="17" height="23"/>
</svg>